<svg width="14" height="14" viewBox="0 0 14 14" fill="none" xmlns="http://www.w3.org/2000/svg">
<g id="message-dots-circle">
<path id="Icon" d="M4.71875 7H4.72438M7.25 7H7.25563M9.78125 7H9.78688M7.25 12.0625C10.0459 12.0625 12.3125 9.79594 12.3125 7C12.3125 4.20406 10.0459 1.9375 7.25 1.9375C4.45406 1.9375 2.1875 4.20406 2.1875 7C2.1875 7.67339 2.31898 8.31608 2.55766 8.90379C2.60334 9.01627 2.62618 9.07251 2.63637 9.11797C2.64634 9.16244 2.64999 9.19535 2.64999 9.24093C2.65 9.28752 2.64154 9.33826 2.62462 9.43976L2.29107 11.4411C2.25614 11.6506 2.23868 11.7554 2.27118 11.8312C2.29962 11.8975 2.35247 11.9504 2.41879 11.9788C2.49456 12.0113 2.59935 11.9939 2.80893 11.9589L4.81024 11.6254C4.91174 11.6085 4.96248 11.6 5.00907 11.6C5.05465 11.6 5.08756 11.6037 5.13203 11.6136C5.17749 11.6238 5.23373 11.6467 5.34621 11.6923C5.93392 11.931 6.57661 12.0625 7.25 12.0625ZM5 7C5 7.15533 4.87408 7.28125 4.71875 7.28125C4.56342 7.28125 4.4375 7.15533 4.4375 7C4.4375 6.84467 4.56342 6.71875 4.71875 6.71875C4.87408 6.71875 5 6.84467 5 7ZM7.53125 7C7.53125 7.15533 7.40533 7.28125 7.25 7.28125C7.09467 7.28125 6.96875 7.15533 6.96875 7C6.96875 6.84467 7.09467 6.71875 7.25 6.71875C7.40533 6.71875 7.53125 6.84467 7.53125 7ZM10.0625 7C10.0625 7.15533 9.93658 7.28125 9.78125 7.28125C9.62592 7.28125 9.5 7.15533 9.5 7C9.5 6.84467 9.62592 6.71875 9.78125 6.71875C9.93658 6.71875 10.0625 6.84467 10.0625 7Z" stroke="#999999" stroke-width="1.125" stroke-linecap="round" stroke-linejoin="round"/>
</g>
</svg>
