<svg width="75" height="55" viewBox="0 0 75 55" fill="none" xmlns="http://www.w3.org/2000/svg">
<g id="&#235;&#189;&#145;&#234;&#184;&#176; &#236;&#139;&#164;&#237;&#140;&#168;&#237;&#149;&#156; &#234;&#176;&#144;&#236;&#158;&#144;" clip-path="url(#clip0_394_2487)">
<path id="Vector" d="M1.31071 21.9352C1.64764 21.2532 1.8477 20.5183 1.94246 19.7623C2.14252 18.2396 2.74269 15.7178 4.54319 14.2903C7.24395 12.1544 10.4396 8.12573 12.4033 6.88859C14.367 5.65144 17.889 4.25569 22.4745 3.43622C27.06 2.61674 26.3283 0.80861 32.6353 0.147743C38.9423 -0.513124 47.8659 1.1364 51.5511 2.44756C55.2364 3.75872 61.0485 5.89993 64.897 9.1884C68.7454 12.4769 74.6418 22.9186 74.805 25.7154C74.9682 28.5122 77.0162 43.1464 63.0965 48.243C49.1768 53.3396 60.4747 53.5035 41.4799 54.4076C22.4851 55.3116 26.7547 55.2323 20.1844 53.6886C13.6142 52.1448 8.14421 53.6886 2.66898 40.2756C-1.58484 29.8815 0.26831 24.0288 1.31071 21.9352Z" fill="#CFBB7E"/>
<g id="Group">
<path id="Vector_2" d="M47.0604 26.9427C47.4384 26.9427 47.7448 26.5356 47.7448 26.0334C47.7448 25.5312 47.4384 25.124 47.0604 25.124C46.6824 25.124 46.376 25.5312 46.376 26.0334C46.376 26.5356 46.6824 26.9427 47.0604 26.9427Z" fill="#1B1B1B"/>
<path id="Vector_3" d="M66.3397 26.9427C66.7177 26.9427 67.0241 26.5356 67.0241 26.0334C67.0241 25.5312 66.7177 25.124 66.3397 25.124C65.9617 25.124 65.6553 25.5312 65.6553 26.0334C65.6553 26.5356 65.9617 26.9427 66.3397 26.9427Z" fill="#1B1B1B"/>
<path id="Vector_4" d="M55.3364 28.338C56.9053 29.406 59.0638 29.3214 60.5958 28.1318" stroke="#1B1B1B" stroke-width="0.615496" stroke-linecap="round" stroke-linejoin="round"/>
</g>
<g id="Group_2">
<path id="Vector_5" d="M25.482 52.6399C25.5063 52.49 25.2956 52.3309 25.0115 52.2845C24.7274 52.2381 24.4774 52.3219 24.4531 52.4718C24.4289 52.6217 24.6395 52.7808 24.9236 52.8272C25.2077 52.8736 25.4577 52.7898 25.482 52.6399Z" fill="#9B875E"/>
<path id="Vector_6" d="M27.3817 53.4825C27.5329 53.4825 27.6554 53.3594 27.6554 53.2075C27.6554 53.0557 27.5329 52.9326 27.3817 52.9326C27.2305 52.9326 27.1079 53.0557 27.1079 53.2075C27.1079 53.3594 27.2305 53.4825 27.3817 53.4825Z" fill="#9B875E"/>
<path id="Vector_7" d="M6.02278 41.8457C6.17398 41.8457 6.29655 41.7227 6.29655 41.5708C6.29655 41.419 6.17398 41.2959 6.02278 41.2959C5.87159 41.2959 5.74902 41.419 5.74902 41.5708C5.74902 41.7227 5.87159 41.8457 6.02278 41.8457Z" fill="#9B875E"/>
<path id="Vector_8" d="M6.66798 42.2286C6.75436 42.2028 6.79951 42.0979 6.76881 41.9943C6.73811 41.8908 6.6432 41.8278 6.55681 41.8536C6.47042 41.8795 6.42528 41.9843 6.45597 42.0879C6.48667 42.1914 6.58159 42.2544 6.66798 42.2286Z" fill="#9B875E"/>
<path id="Vector_9" d="M4.39991 38.2338C4.58043 38.2026 4.68592 37.9393 4.63555 37.6458C4.58517 37.3523 4.39799 37.1397 4.21748 37.171C4.03696 37.2022 3.93146 37.4655 3.98184 37.759C4.03222 38.0525 4.21939 38.2651 4.39991 38.2338Z" fill="#9B875E"/>
<path id="Vector_10" d="M4.13826 36.8816C4.24293 36.8816 4.32778 36.7964 4.32778 36.6913C4.32778 36.5862 4.24293 36.501 4.13826 36.501C4.03358 36.501 3.94873 36.5862 3.94873 36.6913C3.94873 36.7964 4.03358 36.8816 4.13826 36.8816Z" fill="#9B875E"/>
<path id="Vector_11" d="M28.2237 53.4455C28.3546 53.4455 28.4606 53.339 28.4606 53.2076C28.4606 53.0762 28.3546 52.9697 28.2237 52.9697C28.0929 52.9697 27.9868 53.0762 27.9868 53.2076C27.9868 53.339 28.0929 53.4455 28.2237 53.4455Z" fill="#9B875E"/>
</g>
</g>
<defs>
<clipPath id="clip0_394_2487">
<rect width="75" height="55" fill="white"/>
</clipPath>
</defs>
</svg>
