<svg width="116" height="32" viewBox="0 0 116 32" fill="none" xmlns="http://www.w3.org/2000/svg">
<rect x="0.5" y="0.5" width="115" height="31" rx="7.5" stroke="#EEEEEE"/>
<path d="M17 7H23M11 10H29M27 10L26.2987 20.5193C26.1935 22.0975 26.1409 22.8867 25.8 23.485C25.4999 24.0118 25.0472 24.4353 24.5017 24.6997C23.882 25 23.0911 25 21.5093 25H18.4907C16.9089 25 16.118 25 15.4983 24.6997C14.9528 24.4353 14.5001 24.0118 14.2 23.485C13.8591 22.8867 13.8065 22.0975 13.7013 20.5193L13 10M18 14.5V19.5M22 14.5V19.5" stroke="#333333" stroke-width="2" stroke-linecap="round" stroke-linejoin="round"/>
<path d="M57.5312 11C57.5156 12.7656 58.6562 14.4531 60.8594 15.1562L59.9844 16.5156C58.3906 16.0078 57.2734 14.9453 56.6719 13.5938C56.0469 15.0469 54.8984 16.1797 53.25 16.7344L52.3594 15.3594C54.6406 14.6094 55.7812 12.7969 55.7812 10.8594V9.5H57.5312V11ZM63.6094 8.76562V12.3125H65.5781V13.7656H63.6094V17.3125H61.875V8.76562H63.6094ZM63.6094 17.9375V22.8906H61.875V19.3281H54.2031V17.9375H63.6094ZM78.4531 8.76562V22.8906H76.7969V8.76562H78.4531ZM75.5781 9.03125V22.2031H73.9375V15.0938H71.9062V13.6875H73.9375V9.03125H75.5781ZM70.6562 12.625C70.6562 15.0156 71.5156 17.4062 73.5312 18.5625L72.5 19.8438C71.1953 19.0625 70.3281 17.7188 69.8438 16.1094C69.3438 17.8516 68.4453 19.3359 67.1094 20.1719L66.0469 18.875C68.0938 17.6406 68.9844 15.0781 68.9844 12.625V11.6875H66.5312V10.2812H72.9375V11.6875H70.6562V12.625ZM91.1875 8.76562V14.3906H93.3594V15.8281H91.1875V22.8906H89.4688V8.76562H91.1875ZM88.375 10.9375V12.3281H80.0469V10.9375H83.3906V8.96875H85.125V10.9375H88.375ZM84.2656 13.25C86.2969 13.25 87.8125 14.625 87.8125 16.5781C87.8125 18.5312 86.2969 19.8906 84.2656 19.8906C82.2031 19.8906 80.6875 18.5312 80.7031 16.5781C80.6875 14.625 82.2031 13.25 84.2656 13.25ZM84.2656 14.6719C83.1562 14.6719 82.3594 15.4219 82.3594 16.5781C82.3594 17.7344 83.1562 18.4688 84.2656 18.4531C85.3438 18.4688 86.1406 17.7344 86.1562 16.5781C86.1406 15.4219 85.3438 14.6719 84.2656 14.6719ZM105.75 8.76562V22.8906H104V8.76562H105.75ZM101.531 10.2656C101.531 14.4688 99.9062 18.0469 94.9531 20.3906L94.0469 19C97.7422 17.2422 99.4609 14.8516 99.7656 11.6406H94.7656V10.2656H101.531Z" fill="#333333"/>
</svg>
