<svg width="83" height="28" viewBox="0 0 83 28" fill="none" xmlns="http://www.w3.org/2000/svg">
<g id="logo" clip-path="url(#clip0_1344_2044)">
<g id="Group">
<path id="Vector" d="M15.3147 7.34007C13.3568 11.5976 11.9416 16.1827 11.0789 21.0856H6.91101C7.46351 19.6504 8.07416 17.8395 8.75266 15.6529C8.07416 15.6336 7.42473 15.6144 6.7947 15.6144C6.31975 15.6144 5.85449 15.6144 5.39893 15.6336C4.90459 17.3964 4.49749 19.2073 4.16793 21.076H0C1.16314 18.0996 2.55892 13.5145 4.2164 7.33043H8.40371C7.6089 9.07392 6.90132 10.8559 6.29067 12.6765C6.75593 12.6957 7.23088 12.6957 7.73491 12.6957C8.34556 12.6957 8.98529 12.6861 9.6444 12.6572C10.1097 11.0293 10.5943 9.2473 11.108 7.3208H15.3147V7.34007Z" fill="#577D58"/>
<path id="Vector_2" d="M22.7103 14.6994C22.7103 15.1425 22.6715 15.7493 22.5843 16.5295H16.0319C15.9737 16.7029 15.9447 16.9052 15.9447 17.1268C15.9447 17.4832 16.1191 17.7721 16.4584 17.9937C16.7589 18.196 17.0981 18.3019 17.4664 18.3019C18.1352 18.3019 18.7459 17.9744 19.2984 17.329H22.1578C21.6635 18.5138 20.9268 19.4578 19.9284 20.1803C18.901 20.9316 17.7572 21.3073 16.4972 21.3073C15.3825 21.3073 14.5004 20.9798 13.8316 20.3151C13.1628 19.6505 12.8333 18.7643 12.8333 17.6469C12.8333 15.9998 13.473 14.4971 14.7621 13.1389C16.0513 11.7807 17.5149 11.1064 19.1724 11.1064C21.5278 11.1064 22.7006 12.3009 22.7006 14.6801L22.7103 14.6994ZM20.1514 14.9594C20.0835 14.1214 19.6183 13.7072 18.7653 13.7072C18.0577 13.7072 17.3598 14.1214 16.7007 14.9594H20.1514Z" fill="#577D58"/>
<path id="Vector_3" d="M29.8056 7.34033C27.8476 11.5979 26.4421 16.183 25.5698 21.0859H21.4019C22.565 18.1095 23.9608 13.5244 25.6183 7.34033H29.8056Z" fill="#577D58"/>
<path id="Vector_4" d="M40.3901 7.3402L39.4402 10.4804C37.3659 10.4226 35.563 10.3937 34.0412 10.3937H33.5954C33.2949 11.1643 33.0041 11.9445 32.7424 12.7151H32.8878C34.0122 12.7151 35.2238 12.6766 36.5226 12.6092L35.5727 15.7205C34.2642 15.653 33.0332 15.6145 31.87 15.6145C31.3757 17.3869 30.9686 19.2074 30.6294 21.0761H26.4614C27.6246 18.0997 29.0203 13.5146 30.6778 7.33057H40.3901V7.3402Z" fill="#577D58"/>
<path id="Vector_5" d="M46.2543 14.6032C46.2543 16.4045 45.6824 17.9553 44.529 19.2653C43.3271 20.6235 41.8247 21.3074 40.0412 21.3074C38.9168 21.3074 38.0348 20.9703 37.3756 20.3056C36.7165 19.641 36.387 18.7451 36.387 17.6374C36.387 15.9999 37.0364 14.4972 38.3255 13.1487C39.6147 11.8001 41.088 11.1162 42.7261 11.1162C45.0815 11.1162 46.2543 12.2817 46.2543 14.6032ZM43.6566 14.8247C43.6566 14.0349 43.2689 13.6399 42.4838 13.6399C41.9313 13.6399 41.4369 13.8711 41.0105 14.3335C40.584 14.7958 40.3707 15.3063 40.3707 15.865C40.3707 16.6934 40.7875 17.098 41.6114 17.098C42.2027 17.098 42.697 16.8572 43.0847 16.3756C43.4628 15.9228 43.6566 15.4027 43.6566 14.8151V14.8247Z" fill="#577D58"/>
<path id="Vector_6" d="M55.5402 14.6032C55.5402 16.4045 54.9683 17.9553 53.8149 19.2653C52.6129 20.6235 51.1105 21.3074 49.3271 21.3074C48.2027 21.3074 47.3206 20.9703 46.6615 20.3056C46.0024 19.641 45.6729 18.7451 45.6729 17.6374C45.6729 15.9999 46.3223 14.4972 47.6114 13.1487C48.9006 11.8001 50.3739 11.1162 52.012 11.1162C54.3674 11.1162 55.5402 12.2817 55.5402 14.6032ZM52.9425 14.8247C52.9425 14.0349 52.5548 13.6399 51.7697 13.6399C51.2172 13.6399 50.7228 13.8711 50.2963 14.3335C49.8699 14.7958 49.6566 15.3063 49.6566 15.865C49.6566 16.6934 50.0734 17.098 50.8973 17.098C51.4886 17.098 51.9829 16.8572 52.3706 16.3756C52.7486 15.9228 52.9425 15.4027 52.9425 14.8151V14.8247Z" fill="#577D58"/>
<path id="Vector_7" d="M78.7158 22.8966C77.6108 25.0928 76.0405 26.1909 74.005 26.1909C71.9695 26.1909 70.535 24.8327 69.6626 22.126C69.0908 20.3343 68.8 18.1574 68.8 15.5759C68.8 14.6223 68.8387 13.6109 68.9163 12.5417C67.4333 15.4218 66.2798 18.273 65.4559 21.0857H61.1038V12.5224C59.6499 15.4121 58.5158 18.2634 57.7307 21.0857H53.146C56.1992 16.5777 58.6031 11.7903 60.3575 6.72363H64.9034C64.4673 9.44963 64.2346 12.3008 64.2152 15.2773C65.6692 12.3008 66.9971 9.44963 68.1893 6.72363H73.3556C72.5414 8.78499 72.144 10.9812 72.144 13.3123C72.144 13.6012 72.1537 13.9673 72.1828 14.4104C72.2603 15.9227 72.3669 17.0593 72.5123 17.8203C72.7256 18.9473 73.0842 20.0261 73.5786 21.0472C74.4025 22.7328 75.3814 23.5709 76.5058 23.5709C77.6302 23.5709 78.3959 23.3397 78.7352 22.887L78.7158 22.8966Z" fill="#577D58"/>
<path id="Vector_8" d="M83.0001 14.6994C83.0001 15.1425 82.9613 15.7493 82.8741 16.5295H76.3217C76.2635 16.7029 76.2345 16.9052 76.2345 17.1268C76.2345 17.4832 76.4089 17.7721 76.7482 17.9937C77.0487 18.196 77.3879 18.3019 77.7562 18.3019C78.425 18.3019 79.0357 17.9744 79.5882 17.329H82.4476C81.9532 18.5138 81.2166 19.4578 80.2182 20.1803C79.1908 20.9316 78.047 21.3073 76.7869 21.3073C75.6723 21.3073 74.7902 20.9798 74.1214 20.3151C73.4526 19.6505 73.123 18.7643 73.123 17.6469C73.123 15.9998 73.7628 14.4971 75.0519 13.1389C76.3411 11.7807 77.8047 11.1064 79.4622 11.1064C81.8175 11.1064 82.9904 12.3009 82.9904 14.6801L83.0001 14.6994ZM80.4412 14.9594C80.3733 14.1214 79.908 13.7072 79.0551 13.7072C78.3475 13.7072 77.6496 14.1214 76.9905 14.9594H80.4412Z" fill="#577D58"/>
</g>
<g id="Group_2">
<path id="Vector_9" d="M46.4094 6.36717C46.4094 6.36717 54.0765 5.80849 52.8552 8.69823C51.944 10.8366 48.8229 8.86199 47.718 7.89874C47.1267 7.37858 46.4094 6.36717 46.4094 6.36717Z" fill="#577D58"/>
<path id="Vector_10" d="M53.8148 9.51678C53.8148 9.51678 53.0491 3.84324 57.8471 1.18467C59.9698 -0.00012582 61.5885 -0.0868183 62.5869 0.0480367C63.7016 0.202157 64.5933 1.14614 64.6321 2.26351C64.6612 3.03411 64.1474 3.64096 62.9746 4.29597C60.4351 5.71194 56.8972 5.50003 53.8245 9.51678H53.8148Z" fill="#577D58"/>
</g>
<path id="Vector_11" d="M36.9201 22.0776C36.3676 21.3262 35.1269 22.9252 35.5824 23.7922C35.7181 24.0522 35.9411 24.322 36.29 24.6109C37.8215 25.8343 40.2544 27.0479 43.4918 27.1635C46.3997 27.2599 50.8584 25.5934 52.2251 24.1197C52.4965 23.8307 52.6128 23.3683 52.4771 22.983C52.3511 22.617 52.2057 21.8657 51.4109 22.4147C51.4109 22.4147 47.9602 25.1022 43.5403 24.8999C43.5403 24.8999 39.7116 24.7169 37.1818 22.3858C37.1818 22.3858 37.0364 22.2702 36.9007 22.0776H36.9201Z" fill="#577D58"/>
</g>
<defs>
<clipPath id="clip0_1344_2044">
<rect width="83" height="27.1636" fill="white"/>
</clipPath>
</defs>
</svg>
