<svg width="48" height="48" viewBox="0 0 48 48" fill="none" xmlns="http://www.w3.org/2000/svg">
<path d="M44 23V29.2C44 33.6804 44 35.9206 43.1281 37.6319C42.3611 39.1372 41.1372 40.3611 39.6319 41.1281C37.9206 42 35.6804 42 31.2 42H16.8C12.3196 42 10.0794 42 8.36808 41.1281C6.86278 40.3611 5.63893 39.1372 4.87195 37.6319C4 35.9206 4 33.6804 4 29.2V18.8C4 14.3196 4 12.0794 4.87195 10.3681C5.63893 8.86278 6.86278 7.63893 8.36808 6.87195C10.0794 6 12.3196 6 16.8 6H25M38 16V4M32 10H44M32 24C32 28.4183 28.4183 32 24 32C19.5817 32 16 28.4183 16 24C16 19.5817 19.5817 16 24 16C28.4183 16 32 19.5817 32 24Z" stroke="#999999" stroke-width="4" stroke-linecap="round" stroke-linejoin="round"/>
</svg>
