<svg width="64" height="64" viewBox="0 0 64 64" fill="none" xmlns="http://www.w3.org/2000/svg">
<rect width="64" height="64" rx="32" fill="#577D58"/>
<path d="M41 41.0003H33M22.5 41.5003L28.0493 39.366C28.4042 39.2295 28.5817 39.1612 28.7477 39.0721C28.8952 38.9929 29.0358 38.9015 29.168 38.7989C29.3169 38.6834 29.4514 38.5489 29.7203 38.28L41 27.0003C42.1046 25.8957 42.1046 24.1049 41 23.0003C39.8955 21.8957 38.1046 21.8957 37 23.0003L25.7203 34.28C25.4514 34.5489 25.3169 34.6834 25.2014 34.8323C25.0988 34.9645 25.0074 35.1051 24.9282 35.2526C24.8391 35.4186 24.7708 35.5961 24.6343 35.951L22.5 41.5003ZM22.5 41.5003L24.5581 36.1493C24.7054 35.7663 24.779 35.5749 24.9053 35.4872C25.0157 35.4105 25.1523 35.3816 25.2843 35.4068C25.4353 35.4356 25.5804 35.5807 25.8705 35.8708L28.1296 38.1299C28.4197 38.4199 28.5647 38.565 28.5936 38.716C28.6188 38.848 28.5898 38.9846 28.5131 39.095C28.4254 39.2213 28.234 39.2949 27.8511 39.4422L22.5 41.5003Z" stroke="white" stroke-width="2" stroke-linecap="round" stroke-linejoin="round"/>
</svg>
