<svg width="440" height="440" viewBox="0 0 440 440" fill="none" xmlns="http://www.w3.org/2000/svg">
<rect width="440" height="440" fill="#EEEEEE"/>
<path d="M103.547 253.219V270.582H102.082V261.48H99.5234V269.684H98.1172V253.609H99.5234V260.211H102.082V253.219H103.547ZM95.8516 255.348V256.617H90.8711V264.977C93.2637 264.967 94.9238 264.879 96.8477 264.488L96.9844 265.777C94.8945 266.207 93.1172 266.285 90.4609 266.285H89.3477V255.348H95.8516ZM121.887 267.184V268.453H105.988V267.184H110.422V263.043H107.434V261.773H110.148V256.109H107.395V254.84H120.363V256.109H117.609V261.773H120.324V263.043H117.336V267.184H121.887ZM111.672 261.773H116.105V256.109H111.672V261.773ZM111.965 267.184H115.812V263.043H111.965V267.184ZM142.609 253.219V270.621H141.066V253.219H142.609ZM133.371 254.566C135.949 254.586 137.805 256.93 137.805 260.621C137.805 264.312 135.949 266.656 133.371 266.656C130.773 266.656 128.938 264.312 128.938 260.621C128.938 256.93 130.773 254.586 133.371 254.566ZM133.371 255.934C131.633 255.953 130.422 257.789 130.422 260.621C130.422 263.453 131.633 265.289 133.371 265.289C135.109 265.289 136.32 263.453 136.32 260.621C136.32 257.789 135.109 255.953 133.371 255.934ZM154.621 254.938V266.227H146.594V254.938H154.621ZM148.098 256.168V264.977H153.117V256.168H148.098ZM159.895 253.219V270.621H158.352V253.219H159.895ZM169.074 258.551C169.074 261.5 171.223 264.488 173.781 265.602L172.922 266.812C170.891 265.885 169.133 263.883 168.332 261.48C167.512 264.029 165.764 266.246 163.781 267.242L162.863 266.031C165.344 264.84 167.512 261.559 167.531 258.551V256.285H163.43V255.016H173.215V256.285H169.074V258.551ZM177.18 253.219V270.582H175.637V253.219H177.18ZM198.742 253.238V258.961H201.359V260.25H198.742V266.246H197.219V253.238H198.742ZM195.559 255.367V256.617H185.207V255.367H189.621V253.238H191.145V255.367H195.559ZM190.383 257.574C192.863 257.574 194.543 258.844 194.562 260.816C194.543 262.77 192.863 264.02 190.383 264.02C187.883 264.02 186.184 262.77 186.203 260.816C186.184 258.844 187.883 257.574 190.383 257.574ZM190.383 258.785C188.742 258.785 187.648 259.586 187.668 260.816C187.648 262.047 188.742 262.828 190.383 262.809C192.004 262.828 193.098 262.047 193.117 260.816C193.098 259.586 192.004 258.785 190.383 258.785ZM199.543 268.922V270.211H187.883V265.211H189.387V268.922H199.543ZM208.332 256.52C208.332 258.785 210.031 260.816 212.59 261.656L211.867 262.867C209.865 262.213 208.352 260.826 207.609 259.078C206.857 261.07 205.256 262.623 203.176 263.375L202.395 262.145C204.992 261.266 206.809 259.02 206.828 256.52V255.777H202.863V254.508H212.238V255.777H208.332V256.52ZM216.027 253.219V257.652H218.645V258.941H216.027V263.707H214.504V253.219H216.027ZM210.461 264.176C214.035 264.176 216.184 265.348 216.184 267.34C216.184 269.371 214.035 270.543 210.461 270.543C206.887 270.543 204.699 269.371 204.699 267.34C204.699 265.348 206.887 264.176 210.461 264.176ZM210.461 265.406C207.844 265.406 206.223 266.129 206.242 267.34C206.223 268.59 207.844 269.312 210.461 269.312C213.098 269.312 214.699 268.59 214.699 267.34C214.699 266.129 213.098 265.406 210.461 265.406ZM227.648 253.531C231.516 253.531 233.781 254.586 233.781 256.52C233.781 258.492 231.516 259.547 227.648 259.566C223.781 259.547 221.496 258.492 221.496 256.52C221.496 254.586 223.781 253.531 227.648 253.531ZM227.648 254.684C224.758 254.684 223.078 255.387 223.098 256.52C223.078 257.73 224.758 258.395 227.648 258.395C230.52 258.395 232.219 257.73 232.219 256.52C232.219 255.387 230.52 254.684 227.648 254.684ZM235.559 260.738V261.988H219.738V260.738H235.559ZM233.527 263.492V267.379H223.215V269.176H234.055V270.387H221.691V266.246H232.023V264.664H221.652V263.492H233.527ZM247.98 256.5C247.98 258.922 249.738 261.207 252.277 262.125L251.418 263.316C249.514 262.555 248 261.041 247.258 259.156C246.516 261.256 244.934 262.926 242.883 263.746L242.062 262.496C244.66 261.539 246.457 259.117 246.477 256.441V254.293H247.98V256.5ZM256.438 253.238V266.246H254.895V258.609H251.027V257.32H254.895V253.238H256.438ZM256.828 268.922V270.211H245.207V264.762H246.75V268.922H256.828ZM266.848 254.488V255.777H261.574V257.945H266.652V259.156H261.574V261.559C264.104 261.549 265.686 261.461 267.551 261.09L267.707 262.359C265.676 262.75 264.035 262.848 261.203 262.848H260.109V254.488H266.848ZM274.074 253.238V263.766H272.609V259.02H270.168V263.648H268.742V253.57H270.168V257.77H272.609V253.238H274.074ZM274.074 264.664V270.582H272.57V265.914H262.375V264.664H274.074ZM285.285 256.227V257.477H276.574V256.227H280.188V253.746H281.711V256.227H285.285ZM280.93 258.648C283.117 258.648 284.68 260.289 284.699 262.594C284.68 264.918 283.117 266.578 280.93 266.578C278.762 266.578 277.199 264.918 277.199 262.594C277.199 260.289 278.762 258.648 280.93 258.648ZM280.93 259.938C279.562 259.957 278.566 261.07 278.566 262.594C278.566 264.137 279.562 265.25 280.93 265.23C282.316 265.25 283.332 264.137 283.332 262.594C283.332 261.07 282.316 259.957 280.93 259.938ZM291.398 253.219V270.582H289.934V261.812H287.629V269.723H286.184V253.648H287.629V260.543H289.934V253.219H291.398ZM302.668 255.68C302.648 258.004 305.754 259.977 308.781 260.426L308.215 261.637C305.5 261.178 302.863 259.732 301.809 257.633C300.754 259.732 298.107 261.178 295.441 261.637L294.836 260.426C297.844 259.977 300.949 258.004 300.949 255.68V255.562H295.383V254.312H308.215V255.562H302.668V255.68ZM309.719 263.121V264.391H302.531V270.582H301.027V264.391H293.898V263.121H309.719ZM316.34 258.16C316.34 260.914 317.688 263.902 319.992 265.27L319.113 266.461C317.443 265.445 316.242 263.59 315.637 261.48C314.992 263.785 313.703 265.768 311.965 266.832L310.988 265.68C313.391 264.273 314.855 261.188 314.855 258.219V254.859H316.34V258.16ZM326.066 253.219V270.582H324.582V253.219H326.066ZM322.473 253.59V269.703H321.027V260.758H318.078V259.449H321.027V253.59H322.473ZM344.367 267.066V268.355H328.469V267.066H332.414V262.379C330.93 261.607 330.031 260.357 330.031 258.785C330.031 256.09 332.668 254.332 336.379 254.312C340.09 254.332 342.727 256.09 342.727 258.785C342.727 260.328 341.857 261.568 340.422 262.34V267.066H344.367ZM336.379 255.582C333.527 255.562 331.516 256.852 331.516 258.785C331.516 260.719 333.527 262.027 336.379 262.027C339.211 262.027 341.242 260.719 341.242 258.785C341.242 256.852 339.211 255.562 336.379 255.582ZM333.918 267.066H338.879V262.926C338.127 263.131 337.287 263.238 336.379 263.238C335.49 263.238 334.66 263.141 333.918 262.945V267.066ZM347.59 269.117C346.906 269.117 346.32 268.551 346.34 267.848C346.32 267.164 346.906 266.598 347.59 266.598C348.273 266.598 348.84 267.164 348.84 267.848C348.84 268.551 348.273 269.117 347.59 269.117Z" fill="#999999"/>
<path d="M239 189V195.2C239 199.68 239 201.921 238.128 203.632C237.361 205.137 236.137 206.361 234.632 207.128C232.921 208 230.68 208 226.2 208H211.8C207.32 208 205.079 208 203.368 207.128C201.863 206.361 200.639 205.137 199.872 203.632C199 201.921 199 199.68 199 195.2V184.8C199 180.32 199 178.079 199.872 176.368C200.639 174.863 201.863 173.639 203.368 172.872C205.079 172 207.32 172 211.8 172H220M233 182V170M227 176H239M227 190C227 194.418 223.418 198 219 198C214.582 198 211 194.418 211 190C211 185.582 214.582 182 219 182C223.418 182 227 185.582 227 190Z" stroke="#999999" stroke-width="4" stroke-linecap="round" stroke-linejoin="round"/>
</svg>
