<svg width="165" height="54" viewBox="0 0 165 54" fill="none" xmlns="http://www.w3.org/2000/svg">
<g id="logo" clip-path="url(#clip0_463_1314)">
<g id="Group">
<path id="Vector" d="M30.4449 14.591C26.5526 23.0549 23.7393 32.1698 22.0244 41.9166H13.7388C14.8371 39.0634 16.051 35.4634 17.3999 31.1166C16.051 31.0783 14.76 31.04 13.5075 31.04C12.5634 31.04 11.6384 31.04 10.7328 31.0783C9.75009 34.5825 8.94079 38.1825 8.28565 41.8974H0C2.31227 35.9804 5.087 26.8655 8.38199 14.5719H16.7062C15.1261 18.0378 13.7195 21.5804 12.5055 25.1995C13.4305 25.2378 14.3746 25.2378 15.3766 25.2378C16.5906 25.2378 17.8623 25.2187 19.1726 25.1612C20.0975 21.9251 21.061 18.3825 22.0822 14.5527H30.4449V14.591Z" fill="#577D58"/>
<path id="Vector_2" d="M45.1473 29.2212C45.1473 30.102 45.0702 31.3084 44.8968 32.8595H31.871C31.7553 33.2041 31.6975 33.6063 31.6975 34.0467C31.6975 34.7552 32.0444 35.3297 32.7188 35.7701C33.3161 36.1722 33.9905 36.3829 34.7228 36.3829C36.0523 36.3829 37.2663 35.7318 38.3646 34.4488H44.0489C43.0662 36.8041 41.6018 38.6807 39.6171 40.1169C37.5746 41.6105 35.3008 42.3573 32.7959 42.3573C30.5799 42.3573 28.8265 41.7063 27.4969 40.385C26.1674 39.0637 25.5122 37.302 25.5122 35.0807C25.5122 31.8063 26.784 28.819 29.3467 26.119C31.9095 23.419 34.8191 22.0786 38.1141 22.0786C42.7965 22.0786 45.128 24.4531 45.128 29.1829L45.1473 29.2212ZM40.0603 29.7382C39.9254 28.0722 39.0005 27.2488 37.3048 27.2488C35.8982 27.2488 34.5108 28.0722 33.2005 29.7382H40.0603Z" fill="#577D58"/>
<path id="Vector_3" d="M59.2521 14.5913C55.3597 23.0551 52.5657 32.17 50.8315 41.9168H42.5459C44.8582 35.9998 47.6329 26.8849 50.9279 14.5913H59.2521Z" fill="#577D58"/>
<path id="Vector_4" d="M80.2935 14.5914L78.4051 20.834C74.2816 20.7191 70.6975 20.6616 67.6723 20.6616H66.786C66.1886 22.1935 65.6105 23.7446 65.0903 25.2765H65.3793C67.6145 25.2765 70.0231 25.1999 72.6052 25.0659L70.7168 31.251C68.1155 31.1169 65.6684 31.0403 63.3561 31.0403C62.3734 34.5638 61.5641 38.1829 60.8897 41.8978H52.604C54.9163 35.9808 57.691 26.8659 60.986 14.5723H80.2935V14.5914Z" fill="#577D58"/>
<path id="Vector_5" d="M91.9515 29.0296C91.9515 32.6104 90.8146 35.6934 88.5216 38.2977C86.1323 40.9977 83.1456 42.3572 79.6001 42.3572C77.3649 42.3572 75.6114 41.687 74.3011 40.3657C72.9908 39.0445 72.3357 37.2636 72.3357 35.0615C72.3357 31.8062 73.6267 28.8189 76.1895 26.1381C78.7523 23.4572 81.6811 22.0977 84.9376 22.0977C89.6199 22.0977 91.9515 24.4147 91.9515 29.0296ZM86.7874 29.47C86.7874 27.8998 86.0167 27.1147 84.4559 27.1147C83.3575 27.1147 82.3748 27.5743 81.527 28.4934C80.6791 29.4125 80.2552 30.4274 80.2552 31.5381C80.2552 33.1849 81.0838 33.9891 82.7217 33.9891C83.8971 33.9891 84.8798 33.5104 85.6505 32.553C86.402 31.653 86.7874 30.6189 86.7874 29.4508V29.47Z" fill="#577D58"/>
<path id="Vector_6" d="M110.411 29.0296C110.411 32.6104 109.274 35.6934 106.981 38.2977C104.592 40.9977 101.605 42.3572 98.0596 42.3572C95.8244 42.3572 94.0709 41.687 92.7606 40.3657C91.4503 39.0445 90.7952 37.2636 90.7952 35.0615C90.7952 31.8062 92.0862 28.8189 94.649 26.1381C97.2117 23.4572 100.141 22.0977 103.397 22.0977C108.079 22.0977 110.411 24.4147 110.411 29.0296ZM105.247 29.47C105.247 27.8998 104.476 27.1147 102.915 27.1147C101.817 27.1147 100.834 27.5743 99.9865 28.4934C99.1386 29.4125 98.7147 30.4274 98.7147 31.5381C98.7147 33.1849 99.5433 33.9891 101.181 33.9891C102.357 33.9891 103.339 33.5104 104.11 32.553C104.861 31.653 105.247 30.6189 105.247 29.4508V29.47Z" fill="#577D58"/>
<path id="Vector_7" d="M156.483 45.5168C154.286 49.8827 151.165 52.0657 147.118 52.0657C143.072 52.0657 140.22 49.3657 138.486 43.9849C137.349 40.4232 136.771 36.0955 136.771 30.9636C136.771 29.0679 136.848 27.0572 137.002 24.9317C134.054 30.6572 131.761 36.3253 130.123 41.9168H121.471V24.8934C118.581 30.6381 116.327 36.3061 114.766 41.9168H105.652C111.721 32.9551 116.5 23.4381 119.988 13.3657H129.025C128.158 18.7849 127.695 24.453 127.657 30.37C130.547 24.453 133.187 18.7849 135.557 13.3657H145.827C144.209 17.4636 143.419 21.8296 143.419 26.4636C143.419 27.0381 143.438 27.7657 143.496 28.6466C143.65 31.653 143.862 33.9125 144.151 35.4253C144.575 37.6657 145.288 39.8104 146.271 41.8402C147.908 45.1913 149.855 46.8572 152.09 46.8572C154.325 46.8572 155.847 46.3976 156.522 45.4976L156.483 45.5168Z" fill="#577D58"/>
<path id="Vector_8" d="M165 29.2212C165 30.102 164.923 31.3084 164.75 32.8595H151.724C151.608 33.2041 151.55 33.6063 151.55 34.0467C151.55 34.7552 151.897 35.3297 152.572 35.7701C153.169 36.1722 153.843 36.3829 154.576 36.3829C155.905 36.3829 157.119 35.7318 158.217 34.4488H163.902C162.919 36.8041 161.455 38.6807 159.47 40.1169C157.427 41.6105 155.154 42.3573 152.649 42.3573C150.433 42.3573 148.679 41.7063 147.35 40.385C146.02 39.0637 145.365 37.302 145.365 35.0807C145.365 31.8063 146.637 28.819 149.2 26.119C151.762 23.419 154.672 22.0786 157.967 22.0786C162.649 22.0786 164.981 24.4531 164.981 29.1829L165 29.2212ZM159.913 29.7382C159.778 28.0722 158.853 27.2488 157.158 27.2488C155.751 27.2488 154.364 28.0722 153.053 29.7382H159.913Z" fill="#577D58"/>
</g>
<g id="Group_2">
<path id="Vector_9" d="M92.2598 12.6576C92.2598 12.6576 107.502 11.547 105.074 17.2917C103.262 21.5428 97.0577 17.6172 94.8611 15.7023C93.6857 14.6683 92.2598 12.6576 92.2598 12.6576Z" fill="#577D58"/>
<path id="Vector_10" d="M106.981 18.9194C106.981 18.9194 105.459 7.64067 114.997 2.35556C119.217 0.000244039 122.435 -0.172096 124.42 0.0959887C126.636 0.402372 128.408 2.27897 128.485 4.50024C128.543 6.03216 127.522 7.23854 125.19 8.54067C120.142 11.3556 113.109 10.9343 107 18.9194H106.981Z" fill="#577D58"/>
</g>
<path id="Vector_11" d="M73.3953 43.8891C72.297 42.3955 69.8306 45.5742 70.7362 47.2976C71.006 47.8147 71.4492 48.3508 72.1428 48.9253C75.1873 51.3572 80.0238 53.77 86.4597 53.9998C92.2404 54.1913 101.104 50.8785 103.821 47.9487C104.361 47.3742 104.592 46.4551 104.322 45.6891C104.071 44.9615 103.782 43.4679 102.202 44.5593C102.202 44.5593 95.3427 49.9019 86.556 49.4998C86.556 49.4998 78.9448 49.1359 73.9156 44.5019C73.9156 44.5019 73.6265 44.2721 73.3568 43.8891H73.3953Z" fill="#577D58"/>
</g>
<defs>
<clipPath id="clip0_463_1314">
<rect width="165" height="54" fill="white"/>
</clipPath>
</defs>
</svg>
