<svg width="132" height="151" viewBox="0 0 132 151" fill="none" xmlns="http://www.w3.org/2000/svg">
<g id="&#234;&#176;&#144;&#236;&#158;&#144;&#236;&#191;&#164;" clip-path="url(#clip0_463_1282)">
<g id="Group 1">
<g id="Group">
<g id="Group_2">
<g id="Group_3">
<path id="Vector" d="M113.745 69.6752C116.391 71.0867 119.532 71.3058 122.397 70.4134C126.285 69.2047 131.911 66.625 131.992 61.7902C132.122 54.3919 126.107 53.7186 124.281 54.3189C122.454 54.9192 114.175 56.2577 111.058 62.9908C109.499 66.3574 111.423 68.4341 113.745 69.6752Z" fill="#CFBB7E"/>
<path id="Vector_2" d="M20.179 61.7255C20.1059 58.724 18.7423 55.8929 16.5588 53.8405C13.596 51.058 8.57968 47.4319 4.32633 49.7438C-2.17546 53.2726 0.194733 58.8457 1.61522 60.1355C3.03571 61.4254 8.27935 67.9638 15.6821 67.3635C19.3835 67.0633 20.2439 64.362 20.179 61.7417V61.7255Z" fill="url(#paint0_linear_463_1282)"/>
</g>
<g id="Group_4">
<path id="Vector_3" d="M31.348 140.455C30.4957 141.834 29.3431 143.01 28.572 144.438C27.8009 145.865 27.4681 147.691 28.3285 149.062C29.3999 150.757 31.7295 151.017 33.7345 151.009C35.4309 151 37.2329 150.887 38.6291 149.913C40.7395 148.437 41.1941 145.557 41.47 143.002C41.7054 140.836 41.9327 138.629 41.47 136.504C41.0074 134.379 39.7492 132.302 37.7524 131.434C35.7556 130.566 33.0364 131.32 32.2003 133.324C31.1938 135.733 32.9309 137.891 31.3399 140.455H31.348Z" fill="#CFBB7E"/>
<path id="Vector_4" d="M72.8021 140.455C71.9499 141.834 70.7972 143.01 70.0261 144.438C69.255 145.865 68.9222 147.691 69.7826 149.062C70.854 150.757 73.1836 151.017 75.1886 151.009C76.885 151 78.687 150.887 80.0832 149.913C82.1936 148.437 82.6482 145.557 82.9242 143.002C83.1595 140.836 83.3868 138.629 82.9242 136.504C82.4615 134.379 81.2033 132.302 79.2065 131.434C77.2097 130.566 74.4905 131.32 73.6544 133.324C72.6479 135.733 74.385 137.891 72.794 140.455H72.8021Z" fill="#CFBB7E"/>
</g>
<path id="Vector_5" d="M16.8752 40.9179C16.8752 40.9179 19.2454 4.64028 63.1345 0.138018C63.1345 0.138018 88.7601 -2.4741 102.283 15.3159C115.806 33.1059 112.113 31.159 114.02 34.3633C115.928 37.5676 118.607 41.3641 118.777 46.8074C118.948 52.2506 119.256 56.1607 119.605 58.1482C119.954 60.1357 121.334 65.076 121.245 73.107C121.155 81.1381 119.922 90.2156 118.883 92.8602C117.844 95.5047 117.389 100.575 117.389 101.954C117.389 103.333 112.235 123.565 104.686 127.588C97.137 131.612 97.9568 133.965 81.7876 136.479C65.6183 138.994 59.1815 139.57 56.511 139.002C53.8404 138.434 3.49018 145.386 0.0810045 102.067C0.0810045 102.067 -1.48559 83.2067 8.83934 71.7036C17.1675 62.4314 15.8281 46.5802 16.8671 40.9179H16.8752Z" fill="#CFBB7E"/>
</g>
<g id="Group_5">
<path id="Vector_6" d="M92.9407 16.8571C94.1258 17.6278 95.246 18.5932 95.8061 19.883C96.3662 21.1728 96.2119 22.8602 95.1405 23.7768C94.2557 24.5394 92.9407 24.6367 91.8206 24.3041C90.7004 23.9715 89.7183 23.2901 88.7686 22.6168C87.0153 21.3756 85.262 20.1345 83.5087 18.8933C81.2197 17.2709 80.2132 13.8313 83.9714 14.026C87.1208 14.1882 90.2946 15.1293 92.9407 16.849V16.8571Z" fill="#9B875E"/>
<path id="Vector_7" d="M31.955 24.3606C32.7184 23.184 32.7182 21.8291 31.9547 21.3343C31.1911 20.8395 29.9533 21.3922 29.1899 22.5688C28.4265 23.7454 28.4266 25.1003 29.1902 25.5952C29.9537 26.09 31.1916 25.5373 31.955 24.3606Z" fill="#9B875E"/>
<path id="Vector_8" d="M37.3629 19.656C38.0623 19.656 38.6292 19.0894 38.6292 18.3905C38.6292 17.6916 38.0623 17.125 37.3629 17.125C36.6636 17.125 36.0967 17.6916 36.0967 18.3905C36.0967 19.0894 36.6636 19.656 37.3629 19.656Z" fill="#9B875E"/>
<path id="Vector_9" d="M106.521 74.9241C106.334 74.4861 106.18 73.9912 106.326 73.5288C106.448 73.1232 106.797 72.815 107.194 72.6689C107.592 72.5229 108.03 72.5391 108.444 72.6527C109.297 72.888 110.019 73.5694 110.303 74.4049C110.587 75.2405 110.441 76.214 109.914 76.9278C109.727 77.1793 109.491 77.3983 109.191 77.4876C107.909 77.8769 106.902 75.8002 106.529 74.9241H106.521Z" fill="#9B875E"/>
<path id="Vector_10" d="M107.884 88.4386C108.776 88.4386 109.499 86.7098 109.499 84.5772C109.499 82.4446 108.776 80.7158 107.884 80.7158C106.992 80.7158 106.269 82.4446 106.269 84.5772C106.269 86.7098 106.992 88.4386 107.884 88.4386Z" fill="#9B875E"/>
<path id="Vector_11" d="M103.33 107.414C104.102 107.414 104.727 106.789 104.727 106.018C104.727 105.248 104.102 104.623 103.33 104.623C102.559 104.623 101.934 105.248 101.934 106.018C101.934 106.789 102.559 107.414 103.33 107.414Z" fill="#9B875E"/>
<path id="Vector_12" d="M7.41064 90.8514C7.97776 89.0571 7.87611 87.4253 7.1836 87.2067C6.49109 86.988 5.46996 88.2654 4.90284 90.0597C4.33572 91.854 4.43737 93.4858 5.12988 93.7044C5.82239 93.923 6.84352 92.6457 7.41064 90.8514Z" fill="#9B875E"/>
</g>
</g>
<g id="Group_6">
<g id="Group_7">
<path id="Vector_13" d="M65.4397 54.3761C68.2819 54.3761 70.5859 52.4076 70.5859 49.9793C70.5859 47.551 68.2819 45.5825 65.4397 45.5825C62.5975 45.5825 60.2935 47.551 60.2935 49.9793C60.2935 52.4076 62.5975 54.3761 65.4397 54.3761Z" fill="#F48BA1"/>
<path id="Vector_14" d="M32.2165 54.3761C35.0587 54.3761 37.3628 52.4076 37.3628 49.9793C37.3628 47.551 35.0587 45.5825 32.2165 45.5825C29.3744 45.5825 27.0703 47.551 27.0703 49.9793C27.0703 52.4076 29.3744 54.3761 32.2165 54.3761Z" fill="#F48BA1"/>
</g>
<g id="Group_8">
<g id="Group_9">
<path id="Vector_15" d="M60.2934 47.8216C62.4048 47.8216 64.1165 45.5916 64.1165 42.8407C64.1165 40.0899 62.4048 37.8599 60.2934 37.8599C58.1819 37.8599 56.4702 40.0899 56.4702 42.8407C56.4702 45.5916 58.1819 47.8216 60.2934 47.8216Z" fill="#1B1B1B"/>
<path id="Vector_16" d="M37.9228 48.0325C40.0342 48.0325 41.7459 45.8025 41.7459 43.0517C41.7459 40.3008 40.0342 38.0708 37.9228 38.0708C35.8113 38.0708 34.0996 40.3008 34.0996 43.0517C34.0996 45.8025 35.8113 48.0325 37.9228 48.0325Z" fill="#1B1B1B"/>
<path id="Vector_17" d="M36.874 46.5319C37.6074 46.406 38.069 45.5307 37.905 44.577C37.741 43.6232 37.0135 42.9522 36.2801 43.0781C35.5467 43.2041 35.0851 44.0793 35.2491 45.0331C35.4131 45.9868 36.1405 46.6579 36.874 46.5319Z" fill="white"/>
<path id="Vector_18" d="M59.5063 46.5488C60.244 46.4506 60.7383 45.5933 60.6104 44.6341C60.4825 43.6748 59.7808 42.9768 59.0431 43.0751C58.3055 43.1733 57.8112 44.0306 57.9391 44.9898C58.067 45.9491 58.7687 46.6471 59.5063 46.5488Z" fill="white"/>
</g>
<path id="Vector_19" d="M53.9619 47.4161C53.9619 47.4161 48.1339 51.2289 44.2539 47.043" stroke="#1B1B1B" stroke-width="2.60116" stroke-linecap="round" stroke-linejoin="round"/>
</g>
</g>
</g>
</g>
<defs>
<linearGradient id="paint0_linear_463_1282" x1="10.1151" y1="58.0056" x2="32.8904" y2="71.7163" gradientUnits="userSpaceOnUse">
<stop stop-color="#CFBB7E"/>
<stop offset="1" stop-color="#231F20"/>
</linearGradient>
<clipPath id="clip0_463_1282">
<rect width="132" height="151" fill="white"/>
</clipPath>
</defs>
</svg>
