<svg width="83" height="28" viewBox="0 0 83 28" fill="none" xmlns="http://www.w3.org/2000/svg">
<g clip-path="url(#clip0_394_2007)">
<path d="M15.3147 7.33982C13.3568 11.5974 11.9416 16.1825 11.0789 21.0854H6.91101C7.46351 19.6501 8.07416 17.8392 8.75266 15.6527C8.07416 15.6334 7.42473 15.6141 6.7947 15.6141C6.31975 15.6141 5.85449 15.6141 5.39893 15.6334C4.90459 17.3961 4.49749 19.2071 4.16793 21.0758H0C1.16314 18.0993 2.55892 13.5143 4.2164 7.33019H8.40371C7.6089 9.07367 6.90132 10.8557 6.29067 12.6762C6.75593 12.6955 7.23088 12.6955 7.73491 12.6955C8.34556 12.6955 8.98529 12.6859 9.6444 12.657C10.1097 11.0291 10.5943 9.24706 11.108 7.32056H15.3147V7.33982Z" fill="#577D58"/>
<path d="M22.7103 14.6991C22.7103 15.1422 22.6715 15.7491 22.5843 16.5293H16.0319C15.9737 16.7027 15.9447 16.905 15.9447 17.1265C15.9447 17.4829 16.1191 17.7719 16.4584 17.9934C16.7589 18.1957 17.0981 18.3017 17.4664 18.3017C18.1352 18.3017 18.7459 17.9742 19.2984 17.3288H22.1578C21.6635 18.5136 20.9268 19.4576 19.9284 20.18C18.901 20.9313 17.7572 21.307 16.4972 21.307C15.3825 21.307 14.5004 20.9795 13.8316 20.3149C13.1628 19.6502 12.8333 18.764 12.8333 17.6467C12.8333 15.9995 13.473 14.4968 14.7621 13.1387C16.0513 11.7805 17.5149 11.1062 19.1724 11.1062C21.5278 11.1062 22.7006 12.3006 22.7006 14.6799L22.7103 14.6991ZM20.1514 14.9592C20.0835 14.1212 19.6183 13.707 18.7653 13.707C18.0577 13.707 17.3598 14.1212 16.7007 14.9592H20.1514Z" fill="#577D58"/>
<path d="M29.8056 7.33984C27.8476 11.5974 26.4421 16.1825 25.5698 21.0854H21.4019C22.565 18.109 23.9608 13.5239 25.6183 7.33984H29.8056Z" fill="#577D58"/>
<path d="M40.3901 7.33995L39.4402 10.4801C37.3659 10.4224 35.563 10.3935 34.0412 10.3935H33.5954C33.2949 11.1641 33.0041 11.9443 32.7424 12.7149H32.8878C34.0122 12.7149 35.2238 12.6764 36.5226 12.6089L35.5727 15.7202C34.2642 15.6528 33.0332 15.6143 31.87 15.6143C31.3757 17.3866 30.9686 19.2072 30.6294 21.0759H26.4614C27.6246 18.0995 29.0203 13.5144 30.6778 7.33032H40.3901V7.33995Z" fill="#577D58"/>
<path d="M46.2543 14.6027C46.2543 16.404 45.6824 17.9548 44.529 19.2648C43.3271 20.623 41.8247 21.3069 40.0412 21.3069C38.9168 21.3069 38.0348 20.9698 37.3756 20.3051C36.7165 19.6405 36.387 18.7447 36.387 17.6369C36.387 15.9994 37.0364 14.4967 38.3255 13.1482C39.6147 11.7996 41.088 11.1157 42.7261 11.1157C45.0815 11.1157 46.2543 12.2813 46.2543 14.6027ZM43.6566 14.8242C43.6566 14.0344 43.2689 13.6394 42.4838 13.6394C41.9313 13.6394 41.4369 13.8706 41.0105 14.333C40.584 14.7953 40.3707 15.3059 40.3707 15.8645C40.3707 16.6929 40.7875 17.0975 41.6114 17.0975C42.2027 17.0975 42.697 16.8567 43.0847 16.3751C43.4628 15.9223 43.6566 15.4022 43.6566 14.8146V14.8242Z" fill="#577D58"/>
<path d="M55.5402 14.6027C55.5402 16.404 54.9683 17.9548 53.8149 19.2648C52.6129 20.623 51.1105 21.3069 49.3271 21.3069C48.2027 21.3069 47.3206 20.9698 46.6615 20.3051C46.0024 19.6405 45.6729 18.7447 45.6729 17.6369C45.6729 15.9994 46.3223 14.4967 47.6114 13.1482C48.9006 11.7996 50.3739 11.1157 52.012 11.1157C54.3674 11.1157 55.5402 12.2813 55.5402 14.6027ZM52.9425 14.8242C52.9425 14.0344 52.5548 13.6394 51.7697 13.6394C51.2172 13.6394 50.7228 13.8706 50.2963 14.333C49.8699 14.7953 49.6566 15.3059 49.6566 15.8645C49.6566 16.6929 50.0734 17.0975 50.8973 17.0975C51.4886 17.0975 51.9829 16.8567 52.3706 16.3751C52.7486 15.9223 52.9425 15.4022 52.9425 14.8146V14.8242Z" fill="#577D58"/>
<path d="M78.7158 22.8963C77.6108 25.0926 76.0405 26.1907 74.005 26.1907C71.9695 26.1907 70.535 24.8325 69.6626 22.1257C69.0908 20.3341 68.8 18.1572 68.8 15.5757C68.8 14.622 68.8387 13.6106 68.9163 12.5414C67.4333 15.4215 66.2798 18.2727 65.4559 21.0854H61.1038V12.5222C59.6499 15.4119 58.5158 18.2631 57.7307 21.0854H53.146C56.1992 16.5774 58.6031 11.7901 60.3575 6.72339H64.9034C64.4673 9.44938 64.2346 12.3006 64.2152 15.277C65.6692 12.3006 66.9971 9.44938 68.1893 6.72339H73.3556C72.5414 8.78474 72.144 10.981 72.144 13.312C72.144 13.601 72.1537 13.967 72.1828 14.4101C72.2603 15.9224 72.3669 17.0591 72.5123 17.82C72.7256 18.947 73.0842 20.0259 73.5786 21.0469C74.4025 22.7326 75.3814 23.5706 76.5058 23.5706C77.6302 23.5706 78.3959 23.3394 78.7352 22.8867L78.7158 22.8963Z" fill="#577D58"/>
<path d="M83.0001 14.6991C83.0001 15.1422 82.9613 15.7491 82.8741 16.5293H76.3217C76.2635 16.7027 76.2345 16.905 76.2345 17.1265C76.2345 17.4829 76.4089 17.7719 76.7482 17.9934C77.0487 18.1957 77.3879 18.3017 77.7562 18.3017C78.425 18.3017 79.0357 17.9742 79.5882 17.3288H82.4476C81.9532 18.5136 81.2166 19.4576 80.2182 20.18C79.1908 20.9313 78.047 21.307 76.7869 21.307C75.6723 21.307 74.7902 20.9795 74.1214 20.3149C73.4526 19.6502 73.123 18.764 73.123 17.6467C73.123 15.9995 73.7628 14.4968 75.0519 13.1387C76.3411 11.7805 77.8047 11.1062 79.4622 11.1062C81.8175 11.1062 82.9904 12.3006 82.9904 14.6799L83.0001 14.6991ZM80.4412 14.9592C80.3733 14.1212 79.908 13.707 79.0551 13.707C78.3475 13.707 77.6496 14.1212 76.9905 14.9592H80.4412Z" fill="#577D58"/>
<path d="M46.4094 6.36717C46.4094 6.36717 54.0765 5.80849 52.8552 8.69823C51.944 10.8366 48.8229 8.86199 47.718 7.89874C47.1267 7.37858 46.4094 6.36717 46.4094 6.36717Z" fill="#577D58"/>
<path d="M53.8148 9.51702C53.8148 9.51702 53.0491 3.84348 57.8471 1.18492C59.9698 0.00011832 61.5885 -0.0865741 62.5869 0.0482808C63.7016 0.202401 64.5933 1.14639 64.6321 2.26375C64.6612 3.03435 64.1474 3.6412 62.9746 4.29621C60.4351 5.71219 56.8972 5.50027 53.8245 9.51702H53.8148Z" fill="#577D58"/>
<path d="M36.9201 22.0776C36.3676 21.3262 35.1269 22.9252 35.5824 23.7922C35.7181 24.0522 35.9411 24.322 36.29 24.6109C37.8215 25.8343 40.2544 27.0479 43.4918 27.1635C46.3997 27.2599 50.8584 25.5934 52.2251 24.1197C52.4965 23.8307 52.6128 23.3683 52.4771 22.983C52.3511 22.617 52.2057 21.8657 51.4109 22.4147C51.4109 22.4147 47.9602 25.1022 43.5403 24.8999C43.5403 24.8999 39.7116 24.7169 37.1818 22.3858C37.1818 22.3858 37.0364 22.2702 36.9007 22.0776H36.9201Z" fill="#577D58"/>
</g>
<defs>
<clipPath id="clip0_394_2007">
<rect width="83" height="27.1636" fill="white"/>
</clipPath>
</defs>
</svg>
