<svg width="27" height="27" viewBox="0 0 27 27" fill="none" xmlns="http://www.w3.org/2000/svg">
<path d="M9.35418 24C10.0593 24.6224 10.9856 25 12 25C13.0145 25 13.9407 24.6224 14.6458 24M18 11C18 9.4087 17.3679 7.88258 16.2426 6.75736C15.1174 5.63214 13.5913 5 12 5C10.4087 5 8.88258 5.63214 7.75736 6.75736C6.63214 7.88258 6 9.4087 6 11C6 14.0902 5.22047 16.206 4.34967 17.6054C3.61513 18.7859 3.24786 19.3761 3.26133 19.5408C3.27624 19.7231 3.31486 19.7926 3.46178 19.9016C3.59446 20 4.19259 20 5.38886 20H18.6111C19.8074 20 20.4055 20 20.5382 19.9016C20.6851 19.7926 20.7238 19.7231 20.7387 19.5408C20.7521 19.3761 20.3849 18.7859 19.6503 17.6054C18.7795 16.206 18 14.0902 18 11Z" stroke="#333333" stroke-width="2" stroke-linecap="round" stroke-linejoin="round"/>
<circle cx="24" cy="3" r="3" fill="#D24C49"/>
</svg>
