<svg width="152" height="61" viewBox="0 0 152 61" fill="none" xmlns="http://www.w3.org/2000/svg">
<rect width="152" height="46" rx="8" fill="white"/>
<path d="M42.332 9.48066H44.3044V10.9116H42.332V14.1989H40.5862V6.27072H42.332V9.48066ZM31.0779 13.0718C32.1534 12.7993 33.0797 12.4383 33.8569 11.9889C34.6377 11.5396 35.251 11.0221 35.6967 10.4365C36.1423 9.84714 36.4149 9.20994 36.5143 8.52486H31.7519V7.12707H38.4038C38.4038 8.34254 38.1442 9.43462 37.6248 10.4033C37.1092 11.3683 36.3578 12.1934 35.3707 12.8785C34.3836 13.5599 33.1847 14.0884 31.774 14.4641L31.0779 13.0718ZM33.1939 14.768H42.332V20.1989H33.1939V14.768ZM40.6138 18.8287V16.1823H34.9232V18.8287H40.6138ZM50.0828 10.2762C50.0791 11.0129 50.2172 11.7569 50.4972 12.5083C50.7808 13.2597 51.1896 13.9429 51.7237 14.558C52.2614 15.1731 52.8894 15.6483 53.6076 15.9834L52.6353 17.3536C51.8618 16.9926 51.1822 16.4604 50.5966 15.7569C50.0146 15.0497 49.5598 14.2394 49.232 13.326C48.9041 14.3204 48.4382 15.2044 47.8342 15.9779C47.2301 16.7477 46.5321 17.3241 45.7402 17.7072L44.7181 16.337C45.4437 15.9945 46.0809 15.4991 46.6297 14.8508C47.1786 14.1989 47.6003 13.4715 47.8949 12.6685C48.1896 11.8656 48.3388 11.0681 48.3425 10.2762V9.0884H45.2651V7.66298H53.0331V9.0884H50.0828V10.2762ZM54.3369 6.27072H56.0773V11.7624H58.2541V13.221H56.0773V20.3812H54.3369V6.27072ZM71.7396 13.9779H58.828V12.674H71.7396V13.9779ZM60.3308 14.8232H70.1706V18.0442H62.0767V19.0276H70.6015V20.232H60.3474V16.9171H68.4468V16.0497H60.3308V14.8232ZM60.4302 6.58564H70.143V9.76796H62.1872V10.6796H70.3861V11.8785H60.4634V8.64088H68.4081V7.77901H60.4302V6.58564ZM88.2983 20.4033H86.5635V16.6851H78.6685V15.3039H88.2983V20.4033ZM77.0829 7.29834H83.7127V9.70718H86.5635V6.27072H88.2983V14.6022H86.5635V11.1105H83.7127V13.7845H77.0829V7.29834ZM82.0055 12.4033V8.70166H78.8066V12.4033H82.0055ZM96.7232 7.05525C97.7103 7.05525 98.6034 7.22284 99.4027 7.55801C100.206 7.89319 100.837 8.36464 101.298 8.97237C101.758 9.57643 101.988 10.2707 101.988 11.0552C101.988 11.8471 101.758 12.547 101.298 13.1547C100.837 13.7624 100.206 14.232 99.4027 14.5635C98.6034 14.895 97.7103 15.0589 96.7232 15.0552C95.736 15.0589 94.8429 14.895 94.0436 14.5635C93.248 14.232 92.6219 13.7624 92.1651 13.1547C91.7084 12.547 91.4801 11.8471 91.4801 11.0552C91.4801 10.2707 91.7084 9.57643 92.1651 8.97237C92.6219 8.36464 93.248 7.89319 94.0436 7.55801C94.8429 7.22284 95.736 7.05525 96.7232 7.05525ZM90.2977 17.1934H103.209V18.6077H90.2977V17.1934ZM93.1596 11.0552C93.1559 11.5746 93.3069 12.0295 93.6127 12.4199C93.9184 12.8103 94.3419 13.1105 94.8834 13.3204C95.4248 13.5304 96.0381 13.6354 96.7232 13.6354C97.4082 13.6354 98.0197 13.5304 98.5574 13.3204C99.0988 13.1105 99.5206 12.8103 99.8226 12.4199C100.128 12.0295 100.281 11.5746 100.281 11.0552C100.281 10.5396 100.128 10.0866 99.8226 9.69613C99.5169 9.30203 99.0933 8.99816 98.5519 8.78453C98.0141 8.5709 97.4046 8.46409 96.7232 8.46409C96.0418 8.46409 95.4285 8.5709 94.8834 8.78453C94.3419 8.99816 93.9184 9.30203 93.6127 9.69613C93.3069 10.0866 93.1559 10.5396 93.1596 11.0552ZM111.369 8.58011H114.22V6.28177H115.955V16.558H114.22V13.0055H111.369V14.221H104.739V7.44751H111.369V8.58011ZM109.662 12.8564V8.83425H106.463V12.8564H109.662ZM106.645 15.6077H108.402V18.7072H116.264V20.116H106.645V15.6077ZM114.22 11.6133V9.99447H111.369V11.6133H114.22ZM22.2699 29.2762C22.2699 30.0534 22.4153 30.8232 22.7063 31.5856C23.001 32.3444 23.4227 33.0239 23.9715 33.6243C24.5203 34.221 25.163 34.674 25.8997 34.9834L24.9549 36.3536C24.1373 36 23.4246 35.4751 22.8168 34.779C22.2128 34.0792 21.745 33.2707 21.4135 32.3536C21.082 33.3444 20.6106 34.2228 19.9991 34.989C19.3914 35.7514 18.6824 36.3241 17.8721 36.7072L16.8721 35.337C17.594 35.0055 18.2293 34.5175 18.7781 33.8729C19.3269 33.2284 19.7505 32.5028 20.0489 31.6961C20.3472 30.8895 20.4982 30.0829 20.5019 29.2762V28.0884H17.3914V26.663H25.3527V28.0884H22.2699V29.2762ZM26.9384 25.2707H28.6897V39.3812H26.9384V25.2707ZM42.0593 27.3867C42.0593 27.9834 42.0519 28.4991 42.0372 28.9337C42.0262 29.3646 41.993 29.8545 41.9378 30.4033C41.8862 30.9484 41.8015 31.5304 41.6836 32.1492H43.6339V33.5635H38.0262V39.4033H36.2748V33.5635H30.7665V32.1492H39.9267C40.0998 31.291 40.2103 30.5138 40.2582 29.8177C40.3061 29.1215 40.33 28.3573 40.33 27.5249H32.2914V26.1271H42.0593V27.3867ZM55.6554 30.7845H57.7493V32.2265H55.6554V39.3591H53.9151V25.2707H55.6554V30.7845ZM44.5228 35.5028C46.2429 34.6409 47.5688 33.6041 48.5007 32.3923C49.4362 31.1805 49.9887 29.7716 50.1581 28.1657H45.2742V26.7348H51.9261C51.9151 31.372 49.7733 34.7403 45.5007 36.8398L44.5228 35.5028ZM74.0483 35.6409H72.3135V30.884H69.5898V29.4586H72.3135V25.2818H74.0483V35.6409ZM62.413 32.7624C63.4259 32.442 64.3154 32.0331 65.0815 31.5359C65.8513 31.0387 66.4682 30.4696 66.9323 29.8287C67.3964 29.1878 67.6837 28.4991 67.7942 27.7624H63.1367V26.337H69.6948C69.6948 27.5672 69.4332 28.6943 68.9102 29.7182C68.3872 30.7422 67.6358 31.6298 66.6561 32.3812C65.6763 33.1289 64.5032 33.7182 63.1367 34.1492L62.413 32.7624ZM64.8439 34.5856H66.6174V37.7072H74.4075V39.116H64.8439V34.5856ZM87.1914 28.7127H89.1638V30.1271H87.1914V33.5525H85.4455V25.2707H87.1914V28.7127ZM75.9925 32.3646C77.0533 32.0737 77.9704 31.6943 78.7439 31.2265C79.5174 30.7551 80.1269 30.2173 80.5726 29.6133C81.022 29.0055 81.2964 28.3481 81.3958 27.6409H76.6444V26.2376H83.2853C83.2853 27.4641 83.0256 28.5727 82.5063 29.5635C81.9906 30.5543 81.2411 31.4052 80.2577 32.116C79.2743 32.8232 78.0864 33.3738 76.6941 33.768L75.9925 32.3646ZM77.9041 36.5414C77.9004 35.9705 78.0938 35.4715 78.4842 35.0442C78.8746 34.6169 79.4271 34.2891 80.1417 34.0608C80.8562 33.8324 81.6849 33.7182 82.6278 33.7182C83.5744 33.7182 84.4032 33.8324 85.114 34.0608C85.8249 34.2891 86.3737 34.6169 86.7604 35.0442C87.1509 35.4715 87.3461 35.9705 87.3461 36.5414C87.3461 37.1234 87.1509 37.628 86.7604 38.0552C86.3737 38.4825 85.8249 38.8103 85.114 39.0387C84.4069 39.267 83.5781 39.3812 82.6278 39.3812C81.6813 39.3812 80.8507 39.267 80.1361 39.0387C79.4253 38.8103 78.8746 38.4807 78.4842 38.0497C78.0938 37.6225 77.9004 37.1197 77.9041 36.5414ZM79.6223 36.5414C79.6223 36.8471 79.742 37.1105 79.9814 37.3315C80.2209 37.5525 80.5671 37.7219 81.0201 37.8398C81.4732 37.9576 82.0091 38.0166 82.6278 38.0166C83.2466 38.0166 83.7807 37.9576 84.2301 37.8398C84.6831 37.7219 85.0293 37.5525 85.2687 37.3315C85.5118 37.1105 85.6334 36.8471 85.6334 36.5414C85.6334 36.2357 85.5118 35.9742 85.2687 35.7569C85.0293 35.5359 84.6831 35.3683 84.2301 35.2541C83.7807 35.14 83.2466 35.0829 82.6278 35.0829C82.0091 35.0829 81.4732 35.14 81.0201 35.2541C80.5671 35.3683 80.2209 35.5359 79.9814 35.7569C79.742 35.9742 79.6223 36.2357 79.6223 36.5414ZM96.7654 28.9116H89.8482V27.5138H92.467V25.674H94.1853V27.5138H96.7654V28.9116ZM90.246 32.9448C90.246 32.3112 90.3768 31.744 90.6383 31.2431C90.9035 30.7422 91.27 30.3517 91.7377 30.0718C92.2092 29.7882 92.7396 29.6464 93.3289 29.6464C93.9219 29.6464 94.4504 29.7882 94.9145 30.0718C95.3823 30.3517 95.7488 30.7422 96.014 31.2431C96.2792 31.744 96.4118 32.3112 96.4118 32.9448C96.4118 33.5856 96.2792 34.1584 96.014 34.663C95.7488 35.1676 95.3823 35.5617 94.9145 35.8453C94.4504 36.1252 93.9219 36.2652 93.3289 36.2652C92.7396 36.2652 92.2092 36.1252 91.7377 35.8453C91.27 35.5617 90.9035 35.1676 90.6383 34.663C90.3768 34.1584 90.246 33.5856 90.246 32.9448ZM91.7764 32.9448C91.7764 33.3168 91.8409 33.6427 91.9698 33.9227C92.0987 34.2026 92.281 34.4162 92.5167 34.5635C92.7525 34.7109 93.0232 34.7845 93.3289 34.7845C93.6272 34.7845 93.8943 34.7109 94.13 34.5635C94.3657 34.4125 94.5499 34.1989 94.6825 33.9227C94.8151 33.6427 94.8814 33.3168 94.8814 32.9448C94.8814 32.5801 94.8132 32.2578 94.677 31.9779C94.5444 31.6943 94.3602 31.477 94.1245 31.326C93.8924 31.1713 93.6272 31.0939 93.3289 31.0939C93.0269 31.0939 92.758 31.1713 92.5223 31.326C92.2865 31.477 92.1024 31.6924 91.9698 31.9724C91.8409 32.2523 91.7764 32.5764 91.7764 32.9448ZM97.351 25.5691H98.9808V31.0829H100.368V25.2707H102.02V39.3812H100.368V32.4862H98.9808V38.7459H97.351V25.5691ZM115.555 39.3812H113.809V33.5856H111.295V32.1492H113.809V30.6188H111.295V29.1823H113.809V25.2707H115.555V39.3812ZM103.555 35.4309C104.277 35.0737 104.907 34.5562 105.444 33.8785C105.986 33.2007 106.398 32.4383 106.682 31.5912C106.969 30.744 107.115 29.8877 107.118 29.0221V28.0718H104.096V26.663H111.875V28.0718H108.892V29.0221C108.888 29.7698 109.03 30.5414 109.317 31.337C109.608 32.1326 110.023 32.8619 110.56 33.5249C111.098 34.1878 111.722 34.698 112.433 35.0552L111.4 36.3867C110.649 36.0037 109.984 35.4383 109.406 34.6906C108.831 33.9429 108.38 33.0939 108.052 32.1436C107.746 33.1786 107.304 34.0994 106.726 34.9061C106.148 35.709 105.47 36.3241 104.693 36.7514L103.555 35.4309ZM130.444 37.674H117.532V36.2486H120.516V32.674C119.941 32.3462 119.495 31.9337 119.179 31.4365C118.865 30.9355 118.711 30.3775 118.714 29.7624C118.714 29.0258 118.937 28.3757 119.383 27.8122C119.832 27.2449 120.455 26.8048 121.25 26.4917C122.046 26.1786 122.948 26.0221 123.958 26.0221C124.967 26.0221 125.871 26.1786 126.67 26.4917C127.469 26.8048 128.094 27.2449 128.543 27.8122C128.996 28.3757 129.223 29.0258 129.223 29.7624C129.223 30.3665 129.07 30.9153 128.764 31.4088C128.458 31.8987 128.026 32.3094 127.466 32.6409V36.2486H130.444V37.674ZM120.416 29.7624C120.416 30.2376 120.563 30.6556 120.858 31.0166C121.153 31.3738 121.567 31.6501 122.101 31.8453C122.639 32.0368 123.258 32.1326 123.958 32.1326C124.654 32.1326 125.271 32.035 125.808 31.8398C126.346 31.6446 126.764 31.3683 127.062 31.011C127.365 30.6538 127.516 30.2376 127.516 29.7624C127.516 29.2799 127.366 28.8619 127.068 28.5083C126.77 28.151 126.352 27.8785 125.814 27.6906C125.276 27.5028 124.657 27.4088 123.958 27.4088C123.254 27.4088 122.635 27.5028 122.101 27.6906C121.567 27.8785 121.153 28.151 120.858 28.5083C120.563 28.8619 120.416 29.2799 120.416 29.7624ZM125.709 36.2486V33.3094C125.16 33.4273 124.576 33.4862 123.958 33.4862C123.353 33.4862 122.779 33.4273 122.234 33.3094V36.2486H125.709ZM134.095 34.6796H132.327L132.145 26.6851H134.272L134.095 34.6796ZM132.001 36.9116C131.997 36.6943 132.049 36.4936 132.156 36.3094C132.266 36.1252 132.414 35.9797 132.598 35.8729C132.786 35.7661 132.99 35.7127 133.211 35.7127C133.425 35.7127 133.624 35.7661 133.808 35.8729C133.996 35.9797 134.145 36.1252 134.255 36.3094C134.366 36.4936 134.421 36.6943 134.421 36.9116C134.421 37.1289 134.366 37.3315 134.255 37.5193C134.145 37.7035 133.996 37.8508 133.808 37.9613C133.624 38.0681 133.425 38.1215 133.211 38.1215C132.99 38.1215 132.786 38.0681 132.598 37.9613C132.414 37.8508 132.266 37.7035 132.156 37.5193C132.049 37.3315 131.997 37.1289 132.001 36.9116Z" fill="#577D58"/>
<path d="M13.0625 55.5222C12.4027 56.1362 11.3311 55.6324 11.383 54.7326L12.2242 40.1366C12.2649 39.4297 13.0072 38.9879 13.648 39.2892L23.5103 43.9259C24.151 44.2272 24.2844 45.0806 23.766 45.563L13.0625 55.5222Z" fill="white"/>
</svg>
