<svg width="77" height="103" viewBox="0 0 77 103" fill="none" xmlns="http://www.w3.org/2000/svg">
<g id="&#236;&#149;&#189;&#234;&#176;&#132; &#235;&#167;&#145;&#235;&#136;&#136;&#234;&#180;&#145;st" clip-path="url(#clip0_945_3281)">
<path id="Vector" d="M30.0309 0.880516C37.4056 -0.823088 57.2047 -0.997982 64.6762 9.17182C67.227 12.6438 69.2805 15.779 70.7076 26.2273C71.3792 31.1567 71.4826 37.1809 71.7409 42.1492C72.3608 54.1392 79.7742 65.7146 74.7759 84.9207C71.0176 99.3592 49.3135 103.848 34.4738 102.864C14.9782 101.575 2.26954 91.9359 0.926346 76.6293C-0.313522 62.5147 1.26214 42.499 4.52325 28.7341C7.26129 17.1652 18.7817 3.4845 30.0309 0.880516Z" fill="#CFBB7E"/>
<g id="Group">
<path id="Vector_2" d="M15.7272 85.245C15.2752 85.1154 14.9135 84.798 14.6811 84.3964C14.4034 83.917 13.8868 83.4507 13.0085 83.8782C11.4458 84.6296 10.1801 86.3721 11.2198 87.4732C12.2594 88.5744 13.0925 89.1833 14.2226 91.0683C14.5519 91.6189 17.6322 92.8626 18.73 91.0683C19.718 89.4554 17.9034 85.8798 15.7272 85.2514V85.245Z" fill="#9B875E"/>
<path id="Vector_3" d="M5.87279 75.2303C5.87279 75.2303 4.54897 76.5582 5.87279 77.6983C7.1966 78.8384 6.62833 79.9784 7.76488 80.1663C8.90142 80.3541 10.7935 78.6505 9.27596 77.6983C7.75842 76.7461 8.33315 74.8546 5.87279 75.2303Z" fill="#9B875E"/>
<path id="Vector_4" d="M17.9549 78.722C17.4964 78.6183 17.0573 78.9551 17.025 79.4215C17.0057 79.6936 17.0573 79.9721 17.2575 80.1729C17.7935 80.7106 18.2649 81.1964 19.0011 80.7106C19.7372 80.2248 20.7446 79.3438 19.0011 78.9551L17.9485 78.722H17.9549Z" fill="#9B875E"/>
<path id="Vector_5" d="M27.1959 97.6434C27.493 97.7729 27.8223 97.5138 27.8934 97.1057C27.9321 96.8725 27.9321 96.6199 27.8223 96.4256C27.5253 95.9074 27.267 95.441 26.7181 95.8102C26.1692 96.1794 25.4072 96.8596 26.5243 97.3519L27.1959 97.6499V97.6434Z" fill="#9B875E"/>
<path id="Vector_6" d="M10.1479 69.6081C10.533 69.6081 10.8453 69.2949 10.8453 68.9086C10.8453 68.5222 10.533 68.209 10.1479 68.209C9.76269 68.209 9.45044 68.5222 9.45044 68.9086C9.45044 69.2949 9.76269 69.6081 10.1479 69.6081Z" fill="#9B875E"/>
</g>
<g id="Group_2">
<g id="Group_3">
<path id="Vector_7" d="M34.9774 38.7617H44.5541C44.8834 38.7617 45.1547 39.0338 45.1482 39.3641C45.1094 41.0677 44.5799 45.8028 39.769 45.8028C34.958 45.8028 34.422 41.0677 34.3898 39.3641C34.3833 39.0338 34.6545 38.7617 34.9839 38.7617H34.9774Z" fill="#F48BA1"/>
<path id="Vector_8" d="M41.1122 42.7063C40.8087 42.5185 40.221 42.9071 39.8013 43.5743C39.7819 43.6002 39.7754 43.6261 39.7625 43.6585C39.7496 43.6326 39.7367 43.6067 39.7238 43.5743C39.304 42.9006 38.7164 42.512 38.4129 42.7063C38.1094 42.8942 38.2062 43.5937 38.626 44.2674C38.9811 44.8374 39.4461 45.1743 39.7625 45.1613C40.0854 45.1743 40.5504 44.8374 40.8991 44.2674C41.3188 43.5937 41.4092 42.9006 41.1122 42.7063Z" fill="#EE3E82"/>
</g>
<g id="Group_4">
<path id="Vector_9" d="M27.8869 37.2589C30.1159 37.2589 31.9229 35.2955 31.9229 32.8736C31.9229 30.4517 30.1159 28.4883 27.8869 28.4883C25.6578 28.4883 23.8508 30.4517 23.8508 32.8736C23.8508 35.2955 25.6578 37.2589 27.8869 37.2589Z" fill="#1B1B1B"/>
<path id="Vector_10" d="M50.0687 37.9523C52.2978 37.9523 54.1048 35.9889 54.1048 33.567C54.1048 31.145 52.2978 29.1816 50.0687 29.1816C47.8397 29.1816 46.0327 31.145 46.0327 33.567C46.0327 35.9889 47.8397 37.9523 50.0687 37.9523Z" fill="#1B1B1B"/>
<path id="Vector_11" d="M29.2042 35.3225C30.2206 35.3225 31.0446 34.3278 31.0446 33.1007C31.0446 31.8736 30.2206 30.8789 29.2042 30.8789C28.1878 30.8789 27.3638 31.8736 27.3638 33.1007C27.3638 34.3278 28.1878 35.3225 29.2042 35.3225Z" fill="white"/>
<path id="Vector_12" d="M51.5606 35.7883C52.5771 35.7883 53.4011 34.7936 53.4011 33.5665C53.4011 32.3395 52.5771 31.3447 51.5606 31.3447C50.5442 31.3447 49.7202 32.3395 49.7202 33.5665C49.7202 34.7936 50.5442 35.7883 51.5606 35.7883Z" fill="white"/>
</g>
</g>
</g>
<defs>
<clipPath id="clip0_945_3281">
<rect width="76" height="103" fill="white" transform="translate(0.5)"/>
</clipPath>
</defs>
</svg>
