<svg width="216" height="168" viewBox="0 0 216 168" fill="none" xmlns="http://www.w3.org/2000/svg">
<g clip-path="url(#clip0_1149_4159)">
<path d="M29.5309 65.8805C36.9056 64.1769 56.7047 64.002 64.1762 74.1718C66.727 77.6438 68.7805 80.779 70.2076 91.2273C70.8792 96.1567 70.9826 102.181 71.2409 107.149C71.8608 119.139 79.2742 130.715 74.2759 149.921C70.5176 164.359 48.8135 168.848 33.9738 167.864C14.4782 166.575 1.76954 156.936 0.426346 141.629C-0.813522 127.515 0.762143 107.499 4.02325 93.7341C6.76129 82.1652 18.2817 68.4845 29.5309 65.8805Z" fill="#CFBB7E"/>
<path d="M15.2272 150.245C14.7752 150.115 14.4135 149.798 14.1811 149.396C13.9034 148.917 13.3868 148.451 12.5085 148.878C10.9458 149.63 9.68009 151.372 10.7198 152.473C11.7594 153.574 12.5925 154.183 13.7226 156.068C14.0519 156.619 17.1322 157.863 18.23 156.068C19.218 154.455 17.4034 150.88 15.2272 150.251V150.245Z" fill="#9B875E"/>
<path d="M5.37279 140.23C5.37279 140.23 4.04897 141.558 5.37279 142.698C6.6966 143.838 6.12833 144.978 7.26488 145.166C8.40142 145.354 10.2935 143.651 8.77596 142.698C7.25842 141.746 7.83315 139.855 5.37279 140.23Z" fill="#9B875E"/>
<path d="M17.4549 143.722C16.9964 143.618 16.5573 143.955 16.525 144.422C16.5057 144.694 16.5573 144.972 16.7575 145.173C17.2935 145.711 17.7649 146.196 18.5011 145.711C19.2372 145.225 20.2446 144.344 18.5011 143.955L17.4485 143.722H17.4549Z" fill="#9B875E"/>
<path d="M26.6959 162.643C26.993 162.773 27.3223 162.514 27.3934 162.106C27.4321 161.873 27.4321 161.62 27.3223 161.426C27.0253 160.907 26.767 160.441 26.2181 160.81C25.6692 161.179 24.9072 161.86 26.0243 162.352L26.6959 162.65V162.643Z" fill="#9B875E"/>
<path d="M9.64786 134.608C10.033 134.608 10.3453 134.295 10.3453 133.909C10.3453 133.522 10.033 133.209 9.64786 133.209C9.26269 133.209 8.95044 133.522 8.95044 133.909C8.95044 134.295 9.26269 134.608 9.64786 134.608Z" fill="#9B875E"/>
<path d="M34.4774 103.762H44.0541C44.3834 103.762 44.6547 104.034 44.6482 104.364C44.6094 106.068 44.0799 110.803 39.269 110.803C34.458 110.803 33.922 106.068 33.8898 104.364C33.8833 104.034 34.1545 103.762 34.4839 103.762H34.4774Z" fill="#F48BA1"/>
<path d="M40.6122 107.706C40.3087 107.518 39.721 107.907 39.3013 108.574C39.2819 108.6 39.2754 108.626 39.2625 108.659C39.2496 108.633 39.2367 108.607 39.2238 108.574C38.804 107.901 38.2164 107.512 37.9129 107.706C37.6094 107.894 37.7062 108.594 38.126 109.267C38.4811 109.837 38.9461 110.174 39.2625 110.161C39.5854 110.174 40.0504 109.837 40.3991 109.267C40.8188 108.594 40.9092 107.901 40.6122 107.706Z" fill="#EE3E82"/>
<path d="M27.3869 102.259C29.6159 102.259 31.4229 100.296 31.4229 97.8736C31.4229 95.4517 29.6159 93.4883 27.3869 93.4883C25.1578 93.4883 23.3508 95.4517 23.3508 97.8736C23.3508 100.296 25.1578 102.259 27.3869 102.259Z" fill="#1B1B1B"/>
<path d="M49.5687 102.952C51.7978 102.952 53.6048 100.989 53.6048 98.567C53.6048 96.145 51.7978 94.1816 49.5687 94.1816C47.3397 94.1816 45.5327 96.145 45.5327 98.567C45.5327 100.989 47.3397 102.952 49.5687 102.952Z" fill="#1B1B1B"/>
<path d="M28.7042 100.323C29.7206 100.323 30.5446 99.3278 30.5446 98.1007C30.5446 96.8736 29.7206 95.8789 28.7042 95.8789C27.6878 95.8789 26.8638 96.8736 26.8638 98.1007C26.8638 99.3278 27.6878 100.323 28.7042 100.323Z" fill="white"/>
<path d="M51.0606 100.788C52.0771 100.788 52.9011 99.7936 52.9011 98.5665C52.9011 97.3395 52.0771 96.3447 51.0606 96.3447C50.0442 96.3447 49.2202 97.3395 49.2202 98.5665C49.2202 99.7936 50.0442 100.788 51.0606 100.788Z" fill="white"/>
</g>
<rect x="63.5" width="152" height="46" rx="8" fill="white"/>
<path d="M105.832 9.48066H107.804V10.9116H105.832V14.1989H104.086V6.27072H105.832V9.48066ZM94.5779 13.0718C95.6534 12.7993 96.5797 12.4383 97.3569 11.9889C98.1377 11.5396 98.751 11.0221 99.1967 10.4365C99.6423 9.84714 99.9149 9.20994 100.014 8.52486H95.2519V7.12707H101.904C101.904 8.34254 101.644 9.43462 101.125 10.4033C100.609 11.3683 99.8578 12.1934 98.8707 12.8785C97.8836 13.5599 96.6847 14.0884 95.274 14.4641L94.5779 13.0718ZM96.6939 14.768H105.832V20.1989H96.6939V14.768ZM104.114 18.8287V16.1823H98.4232V18.8287H104.114ZM113.583 10.2762C113.579 11.0129 113.717 11.7569 113.997 12.5083C114.281 13.2597 114.69 13.9429 115.224 14.558C115.761 15.1731 116.389 15.6483 117.108 15.9834L116.135 17.3536C115.362 16.9926 114.682 16.4604 114.097 15.7569C113.515 15.0497 113.06 14.2394 112.732 13.326C112.404 14.3204 111.938 15.2044 111.334 15.9779C110.73 16.7477 110.032 17.3241 109.24 17.7072L108.218 16.337C108.944 15.9945 109.581 15.4991 110.13 14.8508C110.679 14.1989 111.1 13.4715 111.395 12.6685C111.69 11.8656 111.839 11.0681 111.842 10.2762V9.0884H108.765V7.66298H116.533V9.0884H113.583V10.2762ZM117.837 6.27072H119.577V11.7624H121.754V13.221H119.577V20.3812H117.837V6.27072ZM135.24 13.9779H122.328V12.674H135.24V13.9779ZM123.831 14.8232H133.671V18.0442H125.577V19.0276H134.102V20.232H123.847V16.9171H131.947V16.0497H123.831V14.8232ZM123.93 6.58564H133.643V9.76796H125.687V10.6796H133.886V11.8785H123.963V8.64088H131.908V7.77901H123.93V6.58564ZM151.798 20.4033H150.064V16.6851H142.169V15.3039H151.798V20.4033ZM140.583 7.29834H147.213V9.70718H150.064V6.27072H151.798V14.6022H150.064V11.1105H147.213V13.7845H140.583V7.29834ZM145.506 12.4033V8.70166H142.307V12.4033H145.506ZM160.223 7.05525C161.21 7.05525 162.103 7.22284 162.903 7.55801C163.706 7.89319 164.337 8.36464 164.798 8.97237C165.258 9.57643 165.488 10.2707 165.488 11.0552C165.488 11.8471 165.258 12.547 164.798 13.1547C164.337 13.7624 163.706 14.232 162.903 14.5635C162.103 14.895 161.21 15.0589 160.223 15.0552C159.236 15.0589 158.343 14.895 157.544 14.5635C156.748 14.232 156.122 13.7624 155.665 13.1547C155.208 12.547 154.98 11.8471 154.98 11.0552C154.98 10.2707 155.208 9.57643 155.665 8.97237C156.122 8.36464 156.748 7.89319 157.544 7.55801C158.343 7.22284 159.236 7.05525 160.223 7.05525ZM153.798 17.1934H166.709V18.6077H153.798V17.1934ZM156.66 11.0552C156.656 11.5746 156.807 12.0295 157.113 12.4199C157.418 12.8103 157.842 13.1105 158.383 13.3204C158.925 13.5304 159.538 13.6354 160.223 13.6354C160.908 13.6354 161.52 13.5304 162.057 13.3204C162.599 13.1105 163.021 12.8103 163.323 12.4199C163.628 12.0295 163.781 11.5746 163.781 11.0552C163.781 10.5396 163.628 10.0866 163.323 9.69613C163.017 9.30203 162.593 8.99816 162.052 8.78453C161.514 8.5709 160.905 8.46409 160.223 8.46409C159.542 8.46409 158.928 8.5709 158.383 8.78453C157.842 8.99816 157.418 9.30203 157.113 9.69613C156.807 10.0866 156.656 10.5396 156.66 11.0552ZM174.869 8.58011H177.72V6.28177H179.455V16.558H177.72V13.0055H174.869V14.221H168.239V7.44751H174.869V8.58011ZM173.162 12.8564V8.83425H169.963V12.8564H173.162ZM170.145 15.6077H171.902V18.7072H179.764V20.116H170.145V15.6077ZM177.72 11.6133V9.99447H174.869V11.6133H177.72ZM85.7699 29.2762C85.7699 30.0534 85.9153 30.8232 86.2063 31.5856C86.501 32.3444 86.9227 33.0239 87.4715 33.6243C88.0203 34.221 88.663 34.674 89.3997 34.9834L88.4549 36.3536C87.6373 36 86.9246 35.4751 86.3168 34.779C85.7128 34.0792 85.245 33.2707 84.9135 32.3536C84.582 33.3444 84.1106 34.2228 83.4991 34.989C82.8914 35.7514 82.1824 36.3241 81.3721 36.7072L80.3721 35.337C81.094 35.0055 81.7293 34.5175 82.2781 33.8729C82.8269 33.2284 83.2505 32.5028 83.5489 31.6961C83.8472 30.8895 83.9982 30.0829 84.0019 29.2762V28.0884H80.8914V26.663H88.8527V28.0884H85.7699V29.2762ZM90.4384 25.2707H92.1897V39.3812H90.4384V25.2707ZM105.559 27.3867C105.559 27.9834 105.552 28.4991 105.537 28.9337C105.526 29.3646 105.493 29.8545 105.438 30.4033C105.386 30.9484 105.301 31.5304 105.184 32.1492H107.134V33.5635H101.526V39.4033H99.7748V33.5635H94.2665V32.1492H103.427C103.6 31.291 103.71 30.5138 103.758 29.8177C103.806 29.1215 103.83 28.3573 103.83 27.5249H95.7914V26.1271H105.559V27.3867ZM119.155 30.7845H121.249V32.2265H119.155V39.3591H117.415V25.2707H119.155V30.7845ZM108.023 35.5028C109.743 34.6409 111.069 33.6041 112.001 32.3923C112.936 31.1805 113.489 29.7716 113.658 28.1657H108.774V26.7348H115.426C115.415 31.372 113.273 34.7403 109.001 36.8398L108.023 35.5028ZM137.548 35.6409H135.814V30.884H133.09V29.4586H135.814V25.2818H137.548V35.6409ZM125.913 32.7624C126.926 32.442 127.815 32.0331 128.581 31.5359C129.351 31.0387 129.968 30.4696 130.432 29.8287C130.896 29.1878 131.184 28.4991 131.294 27.7624H126.637V26.337H133.195C133.195 27.5672 132.933 28.6943 132.41 29.7182C131.887 30.7422 131.136 31.6298 130.156 32.3812C129.176 33.1289 128.003 33.7182 126.637 34.1492L125.913 32.7624ZM128.344 34.5856H130.117V37.7072H137.907V39.116H128.344V34.5856ZM150.691 28.7127H152.664V30.1271H150.691V33.5525H148.946V25.2707H150.691V28.7127ZM139.492 32.3646C140.553 32.0737 141.47 31.6943 142.244 31.2265C143.017 30.7551 143.627 30.2173 144.073 29.6133C144.522 29.0055 144.796 28.3481 144.896 27.6409H140.144V26.2376H146.785C146.785 27.4641 146.526 28.5727 146.006 29.5635C145.491 30.5543 144.741 31.4052 143.758 32.116C142.774 32.8232 141.586 33.3738 140.194 33.768L139.492 32.3646ZM141.404 36.5414C141.4 35.9705 141.594 35.4715 141.984 35.0442C142.375 34.6169 142.927 34.2891 143.642 34.0608C144.356 33.8324 145.185 33.7182 146.128 33.7182C147.074 33.7182 147.903 33.8324 148.614 34.0608C149.325 34.2891 149.874 34.6169 150.26 35.0442C150.651 35.4715 150.846 35.9705 150.846 36.5414C150.846 37.1234 150.651 37.628 150.26 38.0552C149.874 38.4825 149.325 38.8103 148.614 39.0387C147.907 39.267 147.078 39.3812 146.128 39.3812C145.181 39.3812 144.351 39.267 143.636 39.0387C142.925 38.8103 142.375 38.4807 141.984 38.0497C141.594 37.6225 141.4 37.1197 141.404 36.5414ZM143.122 36.5414C143.122 36.8471 143.242 37.1105 143.481 37.3315C143.721 37.5525 144.067 37.7219 144.52 37.8398C144.973 37.9576 145.509 38.0166 146.128 38.0166C146.747 38.0166 147.281 37.9576 147.73 37.8398C148.183 37.7219 148.529 37.5525 148.769 37.3315C149.012 37.1105 149.133 36.8471 149.133 36.5414C149.133 36.2357 149.012 35.9742 148.769 35.7569C148.529 35.5359 148.183 35.3683 147.73 35.2541C147.281 35.14 146.747 35.0829 146.128 35.0829C145.509 35.0829 144.973 35.14 144.52 35.2541C144.067 35.3683 143.721 35.5359 143.481 35.7569C143.242 35.9742 143.122 36.2357 143.122 36.5414ZM160.265 28.9116H153.348V27.5138H155.967V25.674H157.685V27.5138H160.265V28.9116ZM153.746 32.9448C153.746 32.3112 153.877 31.744 154.138 31.2431C154.403 30.7422 154.77 30.3517 155.238 30.0718C155.709 29.7882 156.24 29.6464 156.829 29.6464C157.422 29.6464 157.95 29.7882 158.415 30.0718C158.882 30.3517 159.249 30.7422 159.514 31.2431C159.779 31.744 159.912 32.3112 159.912 32.9448C159.912 33.5856 159.779 34.1584 159.514 34.663C159.249 35.1676 158.882 35.5617 158.415 35.8453C157.95 36.1252 157.422 36.2652 156.829 36.2652C156.24 36.2652 155.709 36.1252 155.238 35.8453C154.77 35.5617 154.403 35.1676 154.138 34.663C153.877 34.1584 153.746 33.5856 153.746 32.9448ZM155.276 32.9448C155.276 33.3168 155.341 33.6427 155.47 33.9227C155.599 34.2026 155.781 34.4162 156.017 34.5635C156.252 34.7109 156.523 34.7845 156.829 34.7845C157.127 34.7845 157.394 34.7109 157.63 34.5635C157.866 34.4125 158.05 34.1989 158.182 33.9227C158.315 33.6427 158.381 33.3168 158.381 32.9448C158.381 32.5801 158.313 32.2578 158.177 31.9779C158.044 31.6943 157.86 31.477 157.624 31.326C157.392 31.1713 157.127 31.0939 156.829 31.0939C156.527 31.0939 156.258 31.1713 156.022 31.326C155.787 31.477 155.602 31.6924 155.47 31.9724C155.341 32.2523 155.276 32.5764 155.276 32.9448ZM160.851 25.5691H162.481V31.0829H163.868V25.2707H165.52V39.3812H163.868V32.4862H162.481V38.7459H160.851V25.5691ZM179.055 39.3812H177.309V33.5856H174.795V32.1492H177.309V30.6188H174.795V29.1823H177.309V25.2707H179.055V39.3812ZM167.055 35.4309C167.777 35.0737 168.407 34.5562 168.944 33.8785C169.486 33.2007 169.898 32.4383 170.182 31.5912C170.469 30.744 170.615 29.8877 170.618 29.0221V28.0718H167.596V26.663H175.375V28.0718H172.392V29.0221C172.388 29.7698 172.53 30.5414 172.817 31.337C173.108 32.1326 173.523 32.8619 174.06 33.5249C174.598 34.1878 175.222 34.698 175.933 35.0552L174.9 36.3867C174.149 36.0037 173.484 35.4383 172.906 34.6906C172.331 33.9429 171.88 33.0939 171.552 32.1436C171.246 33.1786 170.804 34.0994 170.226 34.9061C169.648 35.709 168.97 36.3241 168.193 36.7514L167.055 35.4309ZM193.944 37.674H181.032V36.2486H184.016V32.674C183.441 32.3462 182.995 31.9337 182.679 31.4365C182.365 30.9355 182.211 30.3775 182.214 29.7624C182.214 29.0258 182.437 28.3757 182.883 27.8122C183.332 27.2449 183.955 26.8048 184.75 26.4917C185.546 26.1786 186.448 26.0221 187.458 26.0221C188.467 26.0221 189.371 26.1786 190.17 26.4917C190.969 26.8048 191.594 27.2449 192.043 27.8122C192.496 28.3757 192.723 29.0258 192.723 29.7624C192.723 30.3665 192.57 30.9153 192.264 31.4088C191.958 31.8987 191.526 32.3094 190.966 32.6409V36.2486H193.944V37.674ZM183.916 29.7624C183.916 30.2376 184.063 30.6556 184.358 31.0166C184.653 31.3738 185.067 31.6501 185.601 31.8453C186.139 32.0368 186.758 32.1326 187.458 32.1326C188.154 32.1326 188.771 32.035 189.308 31.8398C189.846 31.6446 190.264 31.3683 190.562 31.011C190.865 30.6538 191.016 30.2376 191.016 29.7624C191.016 29.2799 190.866 28.8619 190.568 28.5083C190.27 28.151 189.852 27.8785 189.314 27.6906C188.776 27.5028 188.157 27.4088 187.458 27.4088C186.754 27.4088 186.135 27.5028 185.601 27.6906C185.067 27.8785 184.653 28.151 184.358 28.5083C184.063 28.8619 183.916 29.2799 183.916 29.7624ZM189.209 36.2486V33.3094C188.66 33.4273 188.076 33.4862 187.458 33.4862C186.853 33.4862 186.279 33.4273 185.734 33.3094V36.2486H189.209ZM197.595 34.6796H195.827L195.645 26.6851H197.772L197.595 34.6796ZM195.501 36.9116C195.497 36.6943 195.549 36.4936 195.656 36.3094C195.766 36.1252 195.914 35.9797 196.098 35.8729C196.286 35.7661 196.49 35.7127 196.711 35.7127C196.925 35.7127 197.124 35.7661 197.308 35.8729C197.496 35.9797 197.645 36.1252 197.755 36.3094C197.866 36.4936 197.921 36.6943 197.921 36.9116C197.921 37.1289 197.866 37.3315 197.755 37.5193C197.645 37.7035 197.496 37.8508 197.308 37.9613C197.124 38.0681 196.925 38.1215 196.711 38.1215C196.49 38.1215 196.286 38.0681 196.098 37.9613C195.914 37.8508 195.766 37.7035 195.656 37.5193C195.549 37.3315 195.497 37.1289 195.501 36.9116Z" fill="#577D58"/>
<path d="M76.5625 55.5222C75.9027 56.1362 74.8311 55.6324 74.883 54.7326L75.7242 40.1366C75.7649 39.4297 76.5072 38.9879 77.148 39.2892L87.0103 43.9259C87.651 44.2272 87.7844 45.0806 87.266 45.563L76.5625 55.5222Z" fill="white"/>
<defs>
<clipPath id="clip0_1149_4159">
<rect width="76" height="103" fill="white" transform="translate(0 65)"/>
</clipPath>
</defs>
</svg>
