<svg width="456" height="464" viewBox="0 0 456 464" fill="none" xmlns="http://www.w3.org/2000/svg">
<g clip-path="url(#clip0_1145_4096)" filter="url(#filter0_i_1145_4096)">
<path d="M234.94 83.5398L236.7 84.3898L243.18 82.0698L250.4 84.8798L257.18 86.2098L261.57 84.3798L268.96 86.6098L273.33 88.7798L278.39 86.6698L286.08 84.2998L291.94 86.5498L299.55 82.7298L307.8 86.1398L316.08 86.5398L320.53 84.6398V45.0498H234.94V83.5398Z" fill="#E1BE7C"/>
<path d="M151.08 83.83C151.58 84.06 152.08 84.29 152.57 84.55C154.23 83.63 155.93 82.8 157.57 82.02C157.81 82.14 158.05 82.26 158.26 82.39C158.46 82.52 158.76 82.65 158.76 82.77C158.84 82.84 159.24 82.89 159.45 82.96L160.15 83.14L160.61 83.25L160.89 83.36L161.45 83.58L162.57 84.02L164.81 84.89L171.59 86.22L175.98 84.39L183.37 86.62L187.74 88.79L192.8 86.68L200.48 84.31L206.35 86.56L213.95 82.74L222.21 86.15L230.48 86.56L234.93 84.65V45.05H160.55H160.47C160.44 45.05 160.47 45.05 160.5 45.05C160.56 45.05 160.44 45.05 160.4 45.05L159.34 45.02L158.45 45H156.78C155.69 45.02 154.61 45.03 153.56 45.08C151.45 45.17 149.37 45.31 147.32 45.52L151.08 83.82V83.83Z" fill="#E1BE7C"/>
<path d="M99.6099 120.02C100.04 119.68 100.45 119.35 100.92 119.06V116.29C100.92 115.35 100.92 114.38 101.02 113.48L103.61 111.69C104.44 111.09 105.4 110.64 106.26 110.13L107.22 109.26C107.53 108.96 107.85 108.69 108.2 108.44L110.21 106.91C110.27 106.29 110.38 105.7 110.51 105.12L110.88 103.32C111.32 103.11 111.73 102.88 112.19 102.69L113.55 102.15C114.46 101.82 115.28 101.41 116.22 101.16C117.5 101.05 118.68 100.91 119.91 100.89L120.67 99.0195C120.93 98.3795 121.2 97.7295 121.52 97.1295C122.08 96.3195 122.62 95.4395 123.23 94.6195L125.15 92.1595H127.65L128.87 92.1895L130.11 92.2695C131.31 90.3295 132.71 88.4395 134.24 86.5795C135.48 86.7795 136.68 86.9495 137.9 87.2295C139.11 87.4795 140.29 87.7295 141.48 88.0595C143.6 87.6695 145.77 87.4395 147.93 87.2295C148.99 86.4595 150.09 85.6495 151.21 84.9195L147.32 45.5195C142.98 45.9495 138.69 46.6095 134.42 47.5195C130.16 48.4595 125.92 49.5895 121.72 51.0295C113.34 53.8895 105.13 57.8995 97.5199 63.0895C89.9199 68.2795 83.0599 74.7795 77.3799 82.0695C71.6799 89.3595 67.2199 97.4295 63.8899 105.66L99.5899 120.02H99.6099Z" fill="#E1BE7C"/>
<path d="M101.06 187.66L101.19 186.13C99.71 185.19 98.43 184.02 97.01 182.84C97.04 181.83 97.23 180.76 97.33 179.76C97.45 178.75 97.56 177.78 97.79 176.75L97.72 174.13C97.68 173.28 97.78 172.35 97.8 171.48C96.99 170.52 96.08 169.57 95.36 168.49C95.83 166.42 96.22 164.44 96.88 162.39C97.53 161.17 98.11 160 98.79 158.81L96.62 154.75C96.17 153.71 95.87 152.61 95.51 151.51L94.46 148.18C95.28 146.55 96.27 144.96 97.15 143.39C96.03 141.1 95.17 138.84 94.25 136.48C95.66 134.3 97.41 132.38 98.96 130.47C99.23 129.37 99.69 128.4 100.04 127.37C100.43 126.36 100.75 125.31 101.18 124.34L100.61 120.44L63.88 105.67C60.49 113.92 58.43 122.33 57.02 130.62C56.71 132.69 56.3 134.78 56.1 136.83L55.49 143C55.24 145.05 55.24 147.13 55.13 149.2C55.05 151.27 54.93 153.33 55 155.45C54.95 163.82 55.82 172.52 57.79 181.25C59.77 189.98 63 198.79 67.76 207L101.03 187.67L101.06 187.66Z" fill="#E1BE7C"/>
<path d="M160.13 212.26L158.38 211.38L151.86 213.58L144.69 210.64L143 210.28L142.16 210.1L141.95 210.05C141.9 210.04 141.91 210.02 141.88 210.01L141.78 209.93L141.59 209.75C141.59 209.75 141.52 209.69 141.49 209.66C141.45 209.63 141.35 209.59 141.28 209.56L140.23 209.1C139.16 209.57 137.98 210.01 136.77 210.38C135.07 209.29 133.41 208.13 131.86 206.89C131.01 205.92 130.23 204.86 129.47 203.86C128.12 204.09 126.7 204.34 125.31 204.49C123.27 204.49 121.24 204.36 119.19 204.14C118.71 203.49 118.33 202.76 117.91 202.09L117.31 201.08L116.77 200.03C115.69 200.06 114.56 200.1 113.48 200.03C112.39 199.98 111.22 199.95 110.14 199.79C109.76 198.68 109.35 197.65 109.09 196.53C108.81 195.43 108.5 194.41 108.35 193.3C107.2 191.84 106.19 190.29 105.25 188.69C104.21 188.19 103.05 187.73 102 187.11L67.77 207C72.46 215.25 78.85 222.66 86.06 228.79C89.69 231.82 93.51 234.6 97.51 236.94C101.49 239.33 105.59 241.4 109.78 243.11C113.97 244.85 118.23 246.29 122.55 247.44C126.91 248.59 131.23 249.47 135.99 250.04C136.6 250.11 137.17 250.18 137.9 250.24C138.68 250.31 139.51 250.37 140.31 250.4L143.38 250.46L148.73 250.56L159.43 250.75L160.12 212.27L160.13 212.26Z" fill="#E1BE7C"/>
<path d="M245.71 213.8L243.96 212.91L237.45 215.12L230.27 212.18L223.52 210.72L219.1 212.48L211.75 210.11L207.42 207.87L202.32 209.88L194.59 212.12L188.77 209.77L181.1 213.45L172.9 209.89L164.64 209.34L160.15 211.16L159.44 250.74L245.02 252.27L245.71 213.8Z" fill="#E1BE7C"/>
<path d="M335.81 219.22C335.26 218.74 334.7 218.28 334.14 217.82C331.56 217.85 328.98 217.96 326.4 218.12L324.52 216.96L323.54 216.39C323.08 216.17 322.61 215.95 322.13 215.74C321.18 215.31 320.2 214.91 319.21 214.51C318.21 214.23 317.19 213.96 316.15 213.71L315.43 213.62L315.01 213.53L314.17 213.35L312.48 212.99L309.1 212.26L304.68 214.01L297.33 211.64L293 209.4L287.9 211.42L280.17 213.65L274.35 211.3L266.68 214.98L258.48 211.43L250.22 210.88L245.73 212.71L245.02 252.29L287.81 253.05L309.21 253.43L314.56 253.53C315.24 253.53 315.14 253.54 315.81 253.68C318.52 254.27 321.45 255.07 324.29 255.95L335.81 219.23V219.22Z" fill="#E1BE7C"/>
<path d="M409.47 284.2L409.54 281.84C408.76 280.69 407.84 279.61 406.96 278.52L404.31 275.34L403.5 270.75C403.35 269.98 403.22 269.19 403.04 268.42L402.46 266.13C401.89 264.81 401.35 263.46 400.74 262.15L398.78 258.27C397.23 257.1 395.54 256.11 393.93 255.09L392.89 252.96L391.75 250.91C390.97 249.55 390.22 248.12 389.37 246.8C388.57 245.04 387.75 243.23 386.86 241.45C384.78 240.6 382.75 239.73 380.69 239L376.27 237.1L371.84 235.45C371.11 234.46 370.32 233.57 369.54 232.62C368.76 231.7 367.98 230.72 367.16 229.83C365.53 229.62 363.93 229.42 362.33 229.26L357.56 228.9C356.41 227.69 355.24 226.5 354.05 225.3L350.38 221.81C347.48 220.46 344.57 219.15 341.6 217.98C339.77 218 337.95 218.07 336.14 218.17L324.29 255.94C330.01 257.73 335.6 260.01 340.81 262.67C346.01 265.35 350.86 268.43 355.15 271.87C363.7 278.83 369.82 287.16 373.1 296.76L409.48 284.2H409.47Z" fill="#E1BE7C"/>
<path d="M388.91 381.72L391.01 380.74C391.65 379.54 392.19 378.24 392.75 376.99C393.29 375.72 393.86 374.51 394.34 373.23C396.82 371.46 399.38 369.64 401.73 367.53C403.68 365.41 405.4 363.07 407.15 360.72C407.33 359.76 407.46 358.78 407.55 357.8L407.84 354.89L409.29 352.97C409.75 352.32 410.18 351.65 410.62 350.98L413.25 346.89C414.47 345.32 415.64 343.7 416.84 342.04C416.79 339.74 416.42 337.46 416.15 335.24C416.06 331.9 415.51 328.66 415.08 325.47C415.61 324.31 415.99 323.15 416.42 321.98L417.67 318.43C417.37 317.64 417.11 316.86 416.77 316.09L415.74 313.8C415.05 312.29 414.36 310.8 413.67 309.35C414.14 307.68 414.48 305.97 414.88 304.24C415.26 302.51 415.66 300.75 415.87 298.95L415.12 293.8C414.79 292.09 414.39 290.37 414.01 288.66C413.45 287.83 412.94 287.01 412.33 286.21L410.51 283.85L373.09 296.77C374.75 301.58 375.72 306.73 376.08 312.15L376.23 316.27L376.09 320.35L376.06 321.37L375.94 322.36L375.72 324.34C375.64 325 375.61 325.67 375.49 326.31L375.12 328.22C373.2 338.44 368.5 347.39 361.11 355.1L388.91 381.71V381.72Z" fill="#E1BE7C"/>
<path d="M299.3 418.65L301.07 419.5L307.55 417.18L311.16 418.58L312.06 418.93C312.24 418.99 312.3 419.05 312.57 419.11L313.34 419.29C314.38 419.53 315.43 419.75 316.49 419.95C317.48 419.98 318.45 419.87 319.44 419.81L322.32 419.55C323.69 419.47 325.03 419.38 326.36 419.27C327.87 418.26 329.32 417.22 330.75 416.18C333.64 416.11 336.55 415.98 339.46 415.73C341.28 415.88 343.1 415.95 344.95 416.02C346.53 414.66 348.08 413.26 349.6 411.86C350.8 410.89 351.99 409.95 353.16 408.97L356.62 405.99C358.95 405.6 361.33 405.28 363.68 404.76C365.66 402.21 367.51 399.54 369.28 396.9L374.23 395.57C375.88 395.07 377.53 394.52 379.2 393.96C380.57 393.02 381.88 391.94 383.22 390.92C384.57 389.92 385.85 388.79 387.14 387.67L388.47 385.11L389.69 382.46L361.1 355.08C357.42 358.93 353.11 362.46 348.31 365.59C343.49 368.71 338.22 371.46 332.69 373.82C329.91 374.97 327.08 376.05 324.2 377.02C321.33 377.97 318.41 378.83 315.55 379.54C314.85 379.71 314.13 379.88 313.45 380.03L312.94 380.13C312.78 380.16 312.62 380.13 312.46 380.14H309.99H299.29V418.62L299.3 418.65Z" fill="#E1BE7C"/>
<path d="M213.71 418.65L215.47 419.5L221.95 417.18L229.17 419.99L235.95 421.32L240.34 419.49L247.73 421.73L252.1 423.89L257.16 421.78L264.85 419.41L270.71 421.66L278.32 417.84L286.58 421.25L294.85 421.66L299.3 419.75V380.16L213.71 380.17V418.65Z" fill="#E1BE7C"/>
<path d="M128.12 418.65L129.88 419.5L136.36 417.18L143.58 419.99L150.36 421.32L154.75 419.49L162.14 421.73L166.51 423.89L171.57 421.78L179.26 419.41L185.12 421.66L192.73 417.84L200.99 421.25L209.26 421.66L213.71 419.75V380.16L128.12 380.17V418.65Z" fill="#E1BE7C"/>
</g>
<circle cx="311" cy="65" r="32" fill="#925E20"/>
<circle cx="126" cy="400" r="31.5" fill="#925E20" stroke="white" stroke-linecap="round" stroke-linejoin="round" stroke-dasharray="4 4"/>
<circle cx="311" cy="400" r="31.5" fill="#925E20" stroke="white" stroke-linecap="round" stroke-linejoin="round" stroke-dasharray="4 4"/>
<circle cx="371" cy="255" r="31.5" fill="#925E20" stroke="white" stroke-linecap="round" stroke-linejoin="round" stroke-dasharray="4 4"/>
<circle cx="229" cy="232" r="31.5" fill="#925E20" stroke="white" stroke-linecap="round" stroke-linejoin="round" stroke-dasharray="4 4"/>
<circle cx="84" cy="196" r="31.5" fill="#925E20" stroke="white" stroke-linecap="round" stroke-linejoin="round" stroke-dasharray="4 4"/>
<circle cx="158" cy="65" r="32" fill="#925E20"/>
<g clip-path="url(#clip1_1145_4096)" filter="url(#filter1_i_1145_4096)">
<path d="M339.85 177.276C339.85 177.276 330.527 167.892 326.398 172.07C322.268 176.247 326.398 181.968 326.398 181.968C326.398 181.968 317.259 186.66 322.779 192.217C328.299 197.773 337.949 192.217 337.949 192.217C337.949 192.217 348.294 201.766 353.63 196.374C358.966 190.982 346.904 184.52 346.904 184.52C346.904 184.52 356.39 180.754 353.119 175.033C349.848 169.312 339.85 177.297 339.85 177.297V177.276Z" fill="#FAD12B"/>
<g filter="url(#filter2_i_1145_4096)">
<path d="M338.561 189.195C341.632 189.195 344.122 186.689 344.122 183.598C344.122 180.506 341.632 178 338.561 178C335.49 178 333 180.506 333 183.598C333 186.689 335.49 189.195 338.561 189.195Z" fill="#CDD22C"/>
</g>
</g>
<g clip-path="url(#clip2_1145_4096)" filter="url(#filter3_i_1145_4096)">
<path d="M135.85 116.276C135.85 116.276 126.527 106.892 122.398 111.07C118.268 115.247 122.398 120.968 122.398 120.968C122.398 120.968 113.259 125.66 118.779 131.217C124.299 136.773 133.949 131.217 133.949 131.217C133.949 131.217 144.294 140.766 149.63 135.374C154.966 129.982 142.904 123.52 142.904 123.52C142.904 123.52 152.39 119.754 149.119 114.033C145.848 108.312 135.85 116.297 135.85 116.297V116.276Z" fill="#FA8776"/>
<g filter="url(#filter4_i_1145_4096)">
<path d="M134.561 128.195C137.632 128.195 140.122 125.689 140.122 122.598C140.122 119.506 137.632 117 134.561 117C131.49 117 129 119.506 129 122.598C129 125.689 131.49 128.195 134.561 128.195Z" fill="#F05A24"/>
</g>
</g>
<g clip-path="url(#clip3_1145_4096)" filter="url(#filter5_i_1145_4096)">
<path d="M394.85 28.2762C394.85 28.2762 385.527 18.8921 381.398 23.0697C377.268 27.2473 381.398 32.9683 381.398 32.9683C381.398 32.9683 372.259 37.6604 377.779 43.2168C383.299 48.7732 392.949 43.2168 392.949 43.2168C392.949 43.2168 403.294 52.7656 408.63 47.3738C413.966 41.982 401.904 35.5201 401.904 35.5201C401.904 35.5201 411.39 31.7541 408.119 26.0331C404.848 20.3121 394.85 28.2968 394.85 28.2968V28.2762Z" fill="#FCB6F3"/>
<g filter="url(#filter6_i_1145_4096)">
<path d="M393.561 40.1951C396.632 40.1951 399.122 37.689 399.122 34.5976C399.122 31.5061 396.632 29 393.561 29C390.49 29 388 31.5061 388 34.5976C388 37.689 390.49 40.1951 393.561 40.1951Z" fill="#BF2CD2"/>
</g>
</g>
<g clip-path="url(#clip4_1145_4096)" filter="url(#filter7_i_1145_4096)">
<path d="M432.85 428.276C432.85 428.276 423.527 418.892 419.398 423.07C415.268 427.247 419.398 432.968 419.398 432.968C419.398 432.968 410.259 437.66 415.779 443.217C421.299 448.773 430.949 443.217 430.949 443.217C430.949 443.217 441.294 452.766 446.63 447.374C451.966 441.982 439.904 435.52 439.904 435.52C439.904 435.52 449.39 431.754 446.119 426.033C442.848 420.312 432.85 428.297 432.85 428.297V428.276Z" fill="#D98F84"/>
<g filter="url(#filter8_i_1145_4096)">
<path d="M431.561 440.195C434.632 440.195 437.122 437.689 437.122 434.598C437.122 431.506 434.632 429 431.561 429C428.49 429 426 431.506 426 434.598C426 437.689 428.49 440.195 431.561 440.195Z" fill="#D22C6F"/>
</g>
</g>
<g clip-path="url(#clip5_1145_4096)" filter="url(#filter9_i_1145_4096)">
<path d="M39.8503 293.276C39.8503 293.276 30.5274 283.892 26.3975 288.07C22.2676 292.247 26.3975 297.968 26.3975 297.968C26.3975 297.968 17.2586 302.66 22.7788 308.217C28.2989 313.773 37.9489 308.217 37.9489 308.217C37.9489 308.217 48.2941 317.766 53.6302 312.374C58.9664 306.982 46.9038 300.52 46.9038 300.52C46.9038 300.52 56.3903 296.754 53.1191 291.033C49.8479 285.312 39.8503 293.297 39.8503 293.297V293.276Z" fill="#BC9BF6"/>
<g filter="url(#filter10_i_1145_4096)">
<path d="M38.561 305.195C41.6323 305.195 44.1221 302.689 44.1221 299.598C44.1221 296.506 41.6323 294 38.561 294C35.4898 294 33 296.506 33 299.598C33 302.689 35.4898 305.195 38.561 305.195Z" fill="#8ACC9E"/>
</g>
</g>
<g clip-path="url(#clip6_1145_4096)">
<g filter="url(#filter11_i_1145_4096)">
<path d="M73.2905 353.692C73.7148 353.916 74.1957 354 74.6766 354C77.1942 353.944 86.5008 353.663 87.208 352.793C88.0283 351.783 88.4526 343.613 87.208 342.181C85.9633 340.75 66.841 325 66.841 325C66.841 325 59.4297 324.804 57.789 327.443C56.1483 330.082 51 331.935 51 334.405C51 336.679 68.7928 351.305 73.2905 353.692Z" fill="#665E5E"/>
</g>
</g>
<g clip-path="url(#clip7_1145_4096)" filter="url(#filter12_i_1145_4096)">
<path d="M42.7341 372.361L67.1702 356.594C69.3474 355.199 69.6485 352.079 67.7724 350.282C60.6848 343.474 48.8026 331.134 43.1742 330C39.9546 329.385 -2.15411 343.758 0.0926145 349.715C2.03823 354.868 31.1299 368.91 38.9818 372.621C40.1863 373.189 41.5992 373.094 42.7341 372.361Z" fill="#858585"/>
</g>
<g filter="url(#filter13_i_1145_4096)">
<path d="M362.972 169.786C362.972 169.786 350.275 177.224 344 155.678C344 155.678 345.532 158.712 352.222 158.958C358.913 159.204 360.848 163.353 360.848 163.353C360.848 163.353 359.66 157.57 365.36 154.061C371.063 150.551 372.053 145 372.053 145C372.053 145 379.408 164.099 365.526 168.997C365.526 168.997 364.046 169.379 363.47 168.811C363.47 168.811 363.468 169.297 362.972 169.786Z" fill="#7CC242"/>
<path d="M361.174 181.735C361.174 181.735 365.775 177.221 362.972 169.787L362.131 168.107L364.498 167.013L365.529 168.998C365.529 168.998 368.306 176.393 364.063 182L361.174 181.735Z" fill="#7CC242"/>
</g>
<g filter="url(#filter14_i_1145_4096)">
<path d="M396.932 440.649C396.932 440.649 411.614 441.636 407.612 419.555C407.612 419.555 407.596 422.954 401.718 426.161C395.841 429.367 395.961 433.944 395.961 433.944C395.961 433.944 394.443 428.238 387.776 427.642C381.106 427.048 377.742 422.522 377.742 422.522C377.742 422.522 379.686 442.896 394.295 441.083C394.295 441.083 395.79 440.764 396.051 439.998C396.051 439.998 396.27 440.432 396.932 440.649Z" fill="#7CC242"/>
</g>
<g filter="url(#filter15_i_1145_4096)">
<path fill-rule="evenodd" clip-rule="evenodd" d="M198.612 359.161C199.057 359.056 199.522 359 200 359C203.006 359 205.496 361.211 205.932 364.095C206.279 364.032 206.636 364 207 364C210.314 364 213 366.686 213 370C213 371.017 212.747 371.976 212.3 372.815C213.352 373.896 214 375.372 214 377C214 380.247 211.421 382.892 208.199 382.997C207.162 384.792 205.222 386 203 386C202.227 386 201.488 385.854 200.81 385.588C199.716 387.052 197.969 388 196 388C194.463 388 193.062 387.422 192 386.472C190.938 387.422 189.537 388 188 388C185.002 388 182.518 385.801 182.071 382.929C179.199 382.482 177 379.998 177 377C177 375.463 177.578 374.062 178.528 373C177.578 371.938 177 370.537 177 369C177 365.913 179.331 363.371 182.328 363.037C183.142 360.687 185.374 359 188 359C188.478 359 188.943 359.056 189.388 359.161C190.489 357.841 192.146 357 194 357C195.854 357 197.511 357.841 198.612 359.161ZM189.083 375.999C189.078 376.031 189.073 376.063 189.068 376.095C189.022 376.086 188.975 376.079 188.929 376.071C188.925 376.047 188.921 376.023 188.917 375.999C188.945 376 188.972 376 189 376C189.028 376 189.055 376 189.083 375.999Z" fill="#4C9B4E"/>
</g>
<g filter="url(#filter16_i_1145_4096)">
<path fill-rule="evenodd" clip-rule="evenodd" d="M224.612 364.161C225.057 364.056 225.522 364 226 364C229.006 364 231.496 366.211 231.932 369.095C232.279 369.032 232.636 369 233 369C236.314 369 239 371.686 239 375C239 376.017 238.747 376.976 238.3 377.815C239.352 378.896 240 380.372 240 382C240 385.247 237.421 387.892 234.199 387.997C233.162 389.792 231.222 391 229 391C228.227 391 227.488 390.854 226.81 390.588C225.716 392.052 223.969 393 222 393C220.463 393 219.062 392.422 218 391.472C216.938 392.422 215.537 393 214 393C211.002 393 208.518 390.801 208.071 387.929C205.199 387.482 203 384.998 203 382C203 380.463 203.578 379.062 204.528 378C203.578 376.938 203 375.537 203 374C203 370.913 205.331 368.371 208.328 368.037C209.142 365.687 211.374 364 214 364C214.478 364 214.943 364.056 215.388 364.161C216.489 362.841 218.146 362 220 362C221.854 362 223.511 362.841 224.612 364.161ZM215.083 380.999C215.078 381.031 215.073 381.063 215.068 381.095C215.022 381.086 214.975 381.079 214.929 381.071C214.925 381.047 214.921 381.023 214.917 380.999C214.945 381 214.972 381 215 381C215.028 381 215.055 381 215.083 380.999Z" fill="#55AF58"/>
</g>
<g filter="url(#filter17_i_1145_4096)">
<path fill-rule="evenodd" clip-rule="evenodd" d="M47.6116 15.1614C48.0573 15.0559 48.5221 15 49 15C52.006 15 54.4957 17.2106 54.9322 20.0947C55.2787 20.0325 55.6355 20 56 20C59.3137 20 62 22.6863 62 26C62 27.0175 61.7467 27.9758 61.2998 28.8153C62.352 29.8962 63 31.3724 63 33C63 36.2471 60.4207 38.8917 57.1992 38.9968C56.1622 40.7919 54.2222 42 52 42C51.227 42 50.4882 41.8538 49.8097 41.5877C48.7156 43.052 46.9685 44 45 44C43.4633 44 42.0615 43.4223 41 42.4722C39.9385 43.4223 38.5367 44 37 44C34.0021 44 31.5177 41.8014 31.0714 38.9286C28.1986 38.4823 26 35.9979 26 33C26 31.4633 26.5777 30.0615 27.5278 29C26.5777 27.9385 26 26.5367 26 25C26 21.9133 28.3308 19.371 31.3284 19.0372C32.1415 16.6874 34.3737 15 37 15C37.4779 15 37.9427 15.0559 38.3884 15.1614C39.489 13.8406 41.1463 13 43 13C44.8537 13 46.511 13.8406 47.6116 15.1614ZM38.0831 31.9994C38.0777 32.0311 38.0727 32.0629 38.0678 32.0947C38.0216 32.0864 37.9752 32.0787 37.9286 32.0714C37.9248 32.0474 37.921 32.0234 37.9169 31.9994C37.9446 31.9998 37.9723 32 38 32C38.0277 32 38.0554 31.9998 38.0831 31.9994Z" fill="#5E9560"/>
</g>
<g filter="url(#filter18_i_1145_4096)">
<path fill-rule="evenodd" clip-rule="evenodd" d="M70.6116 26.1614C71.0573 26.0559 71.5221 26 72 26C75.006 26 77.4957 28.2106 77.9322 31.0947C78.2787 31.0325 78.6355 31 79 31C82.3137 31 85 33.6863 85 37C85 38.0175 84.7467 38.9758 84.2998 39.8153C85.352 40.8962 86 42.3724 86 44C86 47.2471 83.4207 49.8917 80.1992 49.9968C79.1622 51.7919 77.2222 53 75 53C74.227 53 73.4882 52.8538 72.8097 52.5877C71.7156 54.052 69.9685 55 68 55C66.4633 55 65.0615 54.4223 64 53.4722C62.9385 54.4223 61.5367 55 60 55C57.0021 55 54.5177 52.8014 54.0714 49.9286C51.1986 49.4823 49 46.9979 49 44C49 42.4633 49.5777 41.0615 50.5278 40C49.5777 38.9385 49 37.5367 49 36C49 32.9133 51.3308 30.371 54.3284 30.0372C55.1415 27.6874 57.3737 26 60 26C60.4779 26 60.9427 26.0559 61.3884 26.1614C62.489 24.8406 64.1463 24 66 24C67.8537 24 69.511 24.8406 70.6116 26.1614ZM61.0831 42.9994C61.0777 43.0311 61.0727 43.0629 61.0678 43.0947C61.0216 43.0864 60.9752 43.0787 60.9286 43.0714C60.9248 43.0474 60.921 43.0234 60.9169 42.9994C60.9446 42.9998 60.9723 43 61 43C61.0277 43 61.0554 42.9998 61.0831 42.9994Z" fill="#55AF58"/>
</g>
<g filter="url(#filter19_i_1145_4096)">
<path fill-rule="evenodd" clip-rule="evenodd" d="M42.6116 37.1614C43.0573 37.0559 43.5221 37 44 37C47.006 37 49.4957 39.2106 49.9322 42.0947C50.2787 42.0325 50.6355 42 51 42C54.3137 42 57 44.6863 57 48C57 49.0175 56.7467 49.9758 56.2998 50.8153C57.352 51.8962 58 53.3724 58 55C58 58.2471 55.4207 60.8917 52.1992 60.9968C51.1622 62.7919 49.2222 64 47 64C46.227 64 45.4882 63.8538 44.8097 63.5877C43.7156 65.052 41.9685 66 40 66C38.4633 66 37.0615 65.4223 36 64.4722C34.9385 65.4223 33.5367 66 32 66C29.0021 66 26.5177 63.8014 26.0714 60.9286C23.1986 60.4823 21 57.9979 21 55C21 53.4633 21.5777 52.0615 22.5278 51C21.5777 49.9385 21 48.5367 21 47C21 43.9133 23.3308 41.371 26.3284 41.0372C27.1415 38.6874 29.3737 37 32 37C32.4779 37 32.9427 37.0559 33.3884 37.1614C34.489 35.8406 36.1463 35 38 35C39.8537 35 41.511 35.8406 42.6116 37.1614ZM33.0831 53.9994C33.0777 54.0311 33.0727 54.0629 33.0678 54.0947C33.0216 54.0864 32.9752 54.0787 32.9286 54.0714C32.9248 54.0474 32.921 54.0234 32.9169 53.9994C32.9446 53.9998 32.9723 54 33 54C33.0277 54 33.0554 53.9998 33.0831 53.9994Z" fill="#64D767"/>
</g>
<circle cx="311.5" cy="64.5" r="20" stroke="white"/>
<circle cx="311" cy="65" r="30.5" fill="#EBF6E6" fill-opacity="0.35" stroke="white"/>
<path d="M321.831 89.0398C321.969 89.2193 322.13 89.3511 322.316 89.435C322.5 89.5214 322.696 89.5582 322.903 89.5453C323.111 89.5325 323.316 89.4727 323.52 89.366C323.796 89.2218 324.004 89.0248 324.143 88.7751C324.282 88.528 324.342 88.2402 324.322 87.9119C324.301 87.5861 324.193 87.238 324 86.8675C323.803 86.4922 323.577 86.2023 323.32 85.9977C323.063 85.7957 322.794 85.682 322.512 85.6566C322.231 85.6313 321.953 85.6903 321.679 85.8337C321.478 85.9387 321.313 86.0706 321.184 86.2295C321.055 86.3909 320.97 86.5691 320.931 86.7642C320.891 86.9618 320.902 87.1671 320.963 87.3802L320.048 87.8529C319.926 87.505 319.89 87.151 319.938 86.791C319.988 86.4326 320.125 86.0977 320.351 85.7863C320.575 85.4758 320.88 85.2198 321.265 85.0184C321.707 84.7871 322.156 84.6833 322.611 84.7071C323.067 84.7326 323.494 84.8883 323.893 85.1742C324.292 85.4602 324.63 85.8667 324.905 86.3938C325.181 86.9209 325.322 87.4303 325.327 87.9219C325.334 88.4152 325.217 88.8556 324.977 89.243C324.737 89.6304 324.398 89.939 323.959 90.1686C323.588 90.3623 323.215 90.468 322.84 90.4856C322.466 90.5048 322.112 90.433 321.78 90.2702C321.447 90.1074 321.16 89.8564 320.918 89.5174L321.831 89.0398Z" fill="white"/>
<path d="M317.614 86.5101C318.004 86.3884 318.373 86.3678 318.72 86.4485C319.066 86.5314 319.369 86.7053 319.627 86.97C319.884 87.2371 320.077 87.5781 320.206 87.993C320.336 88.4079 320.371 88.7982 320.311 89.164C320.25 89.5304 320.101 89.8461 319.863 90.1113C319.624 90.3769 319.309 90.5706 318.919 90.6924C318.529 90.8142 318.161 90.8336 317.814 90.7507C317.466 90.6683 317.164 90.4935 316.907 90.2264C316.65 89.9594 316.457 89.6184 316.327 89.2035C316.198 88.7886 316.163 88.3983 316.222 88.0324C316.282 87.6684 316.432 87.3535 316.671 87.0879C316.909 86.8245 317.224 86.6319 317.614 86.5101ZM319.247 88.2952C319.168 88.042 319.061 87.8268 318.924 87.6494C318.788 87.472 318.628 87.3475 318.443 87.2758C318.259 87.2058 318.061 87.204 317.848 87.2704C317.639 87.3357 317.48 87.4491 317.37 87.6107C317.261 87.774 317.2 87.9674 317.189 88.1909C317.178 88.4143 317.212 88.6526 317.291 88.9058C317.37 89.1589 317.478 89.3751 317.615 89.5542C317.752 89.7333 317.911 89.859 318.094 89.9313C318.277 90.0035 318.473 90.007 318.682 89.9417C318.895 89.8753 319.056 89.7602 319.167 89.5963C319.278 89.4325 319.339 89.2379 319.35 89.0127C319.361 88.7875 319.326 88.5483 319.247 88.2952Z" fill="white"/>
<path d="M316.709 91.3907L315.764 91.4931L315.687 90.7763L315.634 90.7819C315.573 91.035 315.449 91.2401 315.262 91.3975C315.074 91.555 314.839 91.6489 314.559 91.6792C314.277 91.7098 314.03 91.6671 313.817 91.5512C313.603 91.4374 313.443 91.264 313.336 91.031L313.292 91.0358C313.222 91.2841 313.083 91.4891 312.875 91.6506C312.665 91.8141 312.409 91.9123 312.107 91.945C311.847 91.9732 311.612 91.9421 311.402 91.8519C311.19 91.7636 311.018 91.6175 310.885 91.4133C310.75 91.2094 310.665 90.9536 310.632 90.646L310.325 87.8145L311.317 87.7071L311.607 90.3875C311.625 90.556 311.673 90.6935 311.749 90.8001C311.824 90.9087 311.918 90.9846 312.032 91.0278C312.146 91.071 312.273 91.0851 312.412 91.07C312.571 91.0527 312.705 91.004 312.813 90.9237C312.921 90.8435 312.998 90.7388 313.046 90.6096C313.093 90.4822 313.108 90.3398 313.091 90.1823L312.805 87.5458L313.775 87.4407L314.07 90.1624C314.085 90.3052 314.129 90.4273 314.201 90.5288C314.272 90.6323 314.364 90.7075 314.478 90.7544C314.593 90.8031 314.72 90.8199 314.859 90.8048C315.002 90.7894 315.129 90.7386 315.24 90.6524C315.349 90.5665 315.431 90.4529 315.486 90.3117C315.542 90.1724 315.56 90.0176 315.542 89.8473L315.263 87.2794L316.252 87.1723L316.709 91.3907Z" fill="white"/>
<path d="M310.348 91.9345L309.377 91.8518L309.436 91.1555L309.375 91.1503C309.253 91.3488 309.093 91.5135 308.895 91.6445C308.697 91.7756 308.432 91.827 308.1 91.7987C307.77 91.7706 307.481 91.661 307.233 91.4699C306.983 91.2786 306.796 91.0122 306.671 90.6708C306.547 90.3312 306.504 89.933 306.543 89.4761C306.581 89.0247 306.69 88.6402 306.868 88.3227C307.045 88.0069 307.273 87.774 307.551 87.6239C307.829 87.4738 308.134 87.4129 308.468 87.4413C308.793 87.4689 309.044 87.5633 309.223 87.7245C309.4 87.8856 309.532 88.0724 309.619 88.285L309.66 88.2885L309.852 86.0369L310.843 86.1212L310.348 91.9345ZM309.556 89.7379C309.58 89.4627 309.562 89.2181 309.502 89.0042C309.441 88.7901 309.34 88.6198 309.199 88.4932C309.058 88.3667 308.883 88.2945 308.674 88.2767C308.46 88.2584 308.272 88.3016 308.111 88.4063C307.949 88.5107 307.821 88.6634 307.726 88.8642C307.631 89.065 307.573 89.2993 307.55 89.5673C307.527 89.8333 307.546 90.0715 307.605 90.2817C307.663 90.4936 307.763 90.663 307.906 90.7897C308.047 90.9163 308.225 90.9887 308.442 91.0072C308.655 91.0253 308.841 90.9857 309.001 90.8884C309.159 90.7909 309.285 90.6436 309.38 90.4465C309.474 90.2494 309.533 90.0132 309.556 89.7379Z" fill="white"/>
<path d="M305.691 87.0707L306.666 87.2682L305.542 92.813L304.567 92.6155L305.691 87.0707Z" fill="white"/>
<path d="M303.613 86.4051C304.014 86.5353 304.335 86.7325 304.577 86.9967C304.816 87.2621 304.964 87.5763 305.02 87.9393C305.076 88.304 305.036 88.6957 304.9 89.1143C304.766 89.526 304.569 89.8647 304.309 90.1306C304.048 90.3965 303.746 90.5704 303.402 90.6524C303.056 90.7337 302.693 90.7127 302.313 90.5894C301.969 90.478 301.682 90.3035 301.452 90.0659C301.221 89.8284 301.073 89.5297 301.008 89.1697C300.942 88.8114 300.983 88.4055 301.13 87.9518L301.225 87.6601L304.039 88.5734C304.109 88.3446 304.128 88.133 304.097 87.9387C304.064 87.7462 303.985 87.5812 303.859 87.4436C303.734 87.3059 303.568 87.2039 303.363 87.1374C303.165 87.0731 302.984 87.0568 302.819 87.0884C302.652 87.1194 302.515 87.1884 302.409 87.2952L301.484 86.995C301.617 86.7808 301.791 86.6117 302.006 86.4877C302.22 86.3655 302.464 86.2957 302.739 86.2783C303.013 86.2628 303.304 86.305 303.613 86.4051ZM301.926 88.5963C301.867 88.7785 301.853 88.9542 301.885 89.1234C301.915 89.2938 301.987 89.442 302.101 89.5681C302.213 89.6953 302.358 89.7879 302.537 89.8459C302.721 89.9056 302.9 89.9164 303.075 89.8783C303.248 89.8397 303.401 89.7613 303.532 89.6432C303.662 89.5269 303.761 89.3837 303.828 89.2137L301.926 88.5963Z" fill="white"/>
<path d="M298.485 88.11L299.239 88.4662L300.178 86.4778C300.235 86.3562 300.261 86.2535 300.256 86.1695C300.248 86.0865 300.219 86.0184 300.166 85.9652C300.112 85.9112 300.04 85.8626 299.948 85.8194C299.865 85.7801 299.74 85.7285 299.575 85.6647L299.923 84.9277C300.088 84.9751 300.264 85.0428 300.45 85.1309C300.682 85.2402 300.87 85.376 301.015 85.5383C301.158 85.7015 301.244 85.8866 301.273 86.0935C301.3 86.2997 301.258 86.5193 301.148 86.7525L300.138 88.8908L300.683 89.1479L300.355 89.8423L299.81 89.5852L299.376 90.5045L298.477 90.0799L298.911 89.1606L298.157 88.8044L298.485 88.11Z" fill="white"/>
<path d="M298.393 83.9145C298.748 84.1422 299.009 84.4145 299.175 84.7314C299.339 85.0488 299.402 85.3902 299.365 85.7556C299.326 86.1225 299.188 86.4913 298.951 86.8617C298.717 87.226 298.44 87.5037 298.121 87.6948C297.801 87.8859 297.465 87.9774 297.111 87.9693C296.756 87.9603 296.41 87.8479 296.074 87.6321C295.77 87.4372 295.537 87.1956 295.374 86.9073C295.211 86.619 295.143 86.2925 295.172 85.9278C295.199 85.5646 295.341 85.1822 295.599 84.7808L295.764 84.5227L298.255 86.12C298.381 85.9165 298.453 85.7168 298.472 85.5208C298.489 85.3264 298.455 85.1466 298.368 84.9816C298.281 84.8166 298.147 84.676 297.966 84.5596C297.791 84.4473 297.619 84.3854 297.452 84.3741C297.282 84.3617 297.133 84.3938 297.003 84.4701L296.184 83.9451C296.368 83.7718 296.579 83.6523 296.818 83.5868C297.056 83.5228 297.31 83.5173 297.58 83.5703C297.849 83.6248 298.12 83.7395 298.393 83.9145ZM296.205 85.6061C296.102 85.7673 296.044 85.9338 296.032 86.1057C296.018 86.2781 296.05 86.4397 296.128 86.5906C296.204 86.742 296.321 86.8684 296.479 86.9698C296.642 87.0742 296.813 87.1302 296.992 87.1377C297.169 87.1443 297.336 87.1071 297.493 87.0262C297.649 86.9468 297.781 86.8334 297.889 86.6859L296.205 85.6061Z" fill="white"/>
<path d="M294.736 41.2649L295.618 40.7655L296.799 42.852L299.09 41.555L297.909 39.4684L298.796 38.9662L301.583 43.8894L300.696 44.3916L299.511 42.2978L297.22 43.5948L298.405 45.6886L297.523 46.1881L294.736 41.2649Z" fill="white"/>
<path d="M303.366 43.4136C302.968 43.5528 302.592 43.5903 302.24 43.5262C301.889 43.4597 301.581 43.2991 301.317 43.0444C301.051 42.7879 300.846 42.452 300.701 42.0365C300.558 41.628 300.51 41.239 300.556 40.8697C300.603 40.5003 300.738 40.1789 300.962 39.9053C301.188 39.6312 301.49 39.4281 301.867 39.2962C302.208 39.1771 302.542 39.1422 302.869 39.1915C303.197 39.2409 303.496 39.3891 303.765 39.6362C304.035 39.8815 304.248 40.2293 304.405 40.6795L304.507 40.969L301.714 41.9456C301.796 42.1704 301.909 42.3505 302.052 42.4858C302.194 42.6194 302.357 42.703 302.541 42.7364C302.724 42.7698 302.917 42.7509 303.121 42.6798C303.317 42.6111 303.472 42.5142 303.584 42.3891C303.698 42.2634 303.765 42.1258 303.785 41.9764L304.703 41.6554C304.726 41.9067 304.69 42.1466 304.594 42.3751C304.498 42.6019 304.346 42.8054 304.138 42.9855C303.929 43.1639 303.672 43.3066 303.366 43.4136ZM303.382 40.6482C303.319 40.4674 303.223 40.3195 303.095 40.2043C302.968 40.0867 302.821 40.0123 302.654 39.981C302.488 39.9473 302.316 39.9615 302.139 40.0235C301.957 40.0873 301.807 40.1873 301.691 40.3236C301.576 40.4592 301.503 40.6138 301.47 40.7872C301.436 40.959 301.444 41.1327 301.494 41.3085L303.382 40.6482Z" fill="white"/>
<path d="M306.221 42.5443L305.251 42.7641L304.001 37.2465L304.97 37.0267L306.221 42.5443Z" fill="white"/>
<path d="M306.004 36.7853L309.602 36.3955L309.694 37.2468L307.104 37.5275L307.27 39.0599L309.613 38.8061L309.705 39.6547L307.362 39.9085L307.621 42.3006L306.613 42.4098L306.004 36.7853Z" fill="white"/>
<path d="M312.095 42.206C311.686 42.184 311.334 42.0745 311.036 41.8777C310.741 41.6791 310.518 41.4107 310.369 41.0725C310.221 40.7326 310.159 40.3456 310.183 39.9116C310.206 39.4776 310.31 39.0996 310.493 38.7775C310.678 38.4556 310.928 38.2118 311.243 38.0463C311.56 37.8808 311.923 37.8091 312.331 37.8312C312.739 37.8533 313.091 37.9636 313.387 38.1622C313.684 38.3608 313.906 38.6301 314.054 38.9701C314.202 39.3101 314.264 39.697 314.24 40.131C314.217 40.565 314.113 40.943 313.93 41.2651C313.747 41.5853 313.496 41.8281 313.18 41.9936C312.865 42.1573 312.503 42.2281 312.095 42.206ZM311.187 39.9631C311.172 40.2279 311.198 40.4673 311.264 40.6811C311.33 40.8949 311.437 41.0676 311.585 41.1991C311.733 41.3289 311.918 41.3997 312.14 41.4118C312.359 41.4236 312.548 41.373 312.707 41.2598C312.867 41.1449 312.991 40.9847 313.079 40.7792C313.168 40.5738 313.219 40.3386 313.234 40.0738C313.248 39.809 313.222 39.5688 313.156 39.3531C313.091 39.1375 312.985 38.9639 312.839 38.8325C312.693 38.701 312.51 38.6293 312.291 38.6175C312.069 38.6055 311.877 38.6569 311.716 38.7717C311.555 38.8866 311.43 39.0477 311.341 39.255C311.253 39.4623 311.201 39.6983 311.187 39.9631Z" fill="white"/>
<path d="M315.748 42.6987C315.349 42.6114 315.018 42.4468 314.756 42.2048C314.496 41.9614 314.32 41.6608 314.227 41.3029C314.135 40.9437 314.136 40.5518 314.229 40.1272C314.322 39.7026 314.485 39.3461 314.717 39.0576C314.952 38.7696 315.238 38.5691 315.576 38.4563C315.915 38.3438 316.284 38.3313 316.684 38.4186C317.083 38.5059 317.413 38.6712 317.672 38.9146C317.934 39.1584 318.11 39.4599 318.201 39.8192C318.293 40.1784 318.292 40.5703 318.199 40.9949C318.106 41.4195 317.943 41.776 317.711 42.0645C317.478 42.3511 317.192 42.5507 316.853 42.6631C316.516 42.7742 316.148 42.786 315.748 42.6987ZM315.212 40.3392C315.155 40.5983 315.142 40.8386 315.173 41.0603C315.204 41.2819 315.282 41.4695 315.406 41.623C315.532 41.7748 315.703 41.8745 315.921 41.9221C316.135 41.9689 316.33 41.9492 316.505 41.8631C316.68 41.7752 316.829 41.637 316.949 41.4484C317.069 41.2598 317.158 41.036 317.214 40.7769C317.271 40.5178 317.284 40.2766 317.254 40.0532C317.224 39.8297 317.147 39.6414 317.024 39.4883C316.901 39.3351 316.732 39.2351 316.518 39.1883C316.301 39.1407 316.103 39.1607 315.926 39.2482C315.748 39.3357 315.599 39.4746 315.478 39.665C315.357 39.8554 315.269 40.0801 315.212 40.3392Z" fill="white"/>
<path d="M320.702 38.1201L320.6 42.5604L320.661 42.5869L323.849 39.493L324.991 39.9912L322.729 45.1767L321.833 44.7857L323.389 41.2181L323.341 41.1971L320.353 44.1222L319.685 43.8306L319.799 39.637L319.756 39.6183L318.194 43.1985L317.298 42.8075L319.56 37.622L320.702 38.1201Z" fill="white"/>
<path d="M323.857 46.2287C323.51 45.9895 323.258 45.7087 323.102 45.3866C322.949 45.0639 322.897 44.7206 322.946 44.3566C322.997 43.9911 323.147 43.6272 323.397 43.2647C323.642 42.9083 323.928 42.6399 324.253 42.4595C324.579 42.279 324.918 42.1987 325.272 42.2184C325.626 42.2391 325.968 42.3629 326.297 42.5896C326.595 42.7944 326.82 43.0436 326.973 43.3371C327.127 43.6306 327.183 43.9592 327.143 44.3228C327.104 44.6849 326.949 45.0623 326.678 45.4551L326.504 45.7076L324.068 44.029C323.935 44.2282 323.856 44.4255 323.831 44.6207C323.807 44.8145 323.836 44.9953 323.917 45.163C323.998 45.3308 324.128 45.4758 324.305 45.5981C324.476 45.7161 324.646 45.7836 324.813 45.8005C324.982 45.8184 325.132 45.7913 325.265 45.7193L326.065 46.271C325.876 46.4382 325.661 46.5506 325.421 46.6082C325.181 46.6643 324.926 46.6614 324.658 46.5996C324.391 46.5362 324.124 46.4126 323.857 46.2287ZM326.099 44.6102C326.208 44.4525 326.271 44.288 326.288 44.1166C326.308 43.9448 326.282 43.7822 326.209 43.6288C326.138 43.475 326.025 43.3448 325.871 43.2382C325.711 43.1285 325.542 43.0669 325.364 43.0535C325.187 43.041 325.018 43.0727 324.859 43.1484C324.7 43.2226 324.565 43.3316 324.452 43.4755L326.099 44.6102Z" fill="white"/>
<path d="M294.122 79.5132L290.933 72.1761L283.596 75.3646L286.785 82.7017L294.122 79.5132Z" fill="white"/>
<path d="M289.815 73.0108L289.556 65.015L281.56 65.2743L281.819 73.2701L289.815 73.0108Z" fill="white"/>
<path d="M290.42 56.9289L288.794 64.762L280.961 63.1362L282.587 55.3032L290.42 56.9289Z" fill="white"/>
<path d="M294.621 49.9392L290.453 56.7674L283.624 52.5989L287.793 45.7707L294.621 49.9392Z" fill="white"/>
<path d="M327.875 79.5132L331.063 72.1761L338.4 75.3646L335.212 82.7017L327.875 79.5132Z" fill="white"/>
<path d="M332.182 73.0108L332.441 65.015L340.437 65.2743L340.177 73.2701L332.182 73.0108Z" fill="white"/>
<path d="M331.577 56.9289L333.203 64.762L341.036 63.1362L339.41 55.3032L331.577 56.9289Z" fill="white"/>
<path d="M327.376 49.9392L331.544 56.7674L338.372 52.5989L334.204 45.7707L327.376 49.9392Z" fill="white"/>
<g clip-path="url(#clip8_1145_4096)">
<path d="M299.419 61.7743C299.527 61.5015 299.591 61.2075 299.622 60.9051C299.686 60.2961 299.878 59.2873 300.454 58.7163C301.318 57.8619 302.341 56.2505 302.969 55.7556C303.597 55.2608 304.724 54.7025 306.192 54.3747C307.659 54.0469 307.425 53.3236 309.443 53.0593C311.461 52.7949 314.317 53.4548 315.496 53.9792C316.676 54.5037 318.535 55.3602 319.767 56.6756C320.998 57.9909 322.885 62.1676 322.938 63.2863C322.99 64.4051 323.645 70.2588 319.191 72.2974C314.736 74.336 318.352 74.4016 312.273 74.7632C306.195 75.1249 307.561 75.0931 305.459 74.4756C303.356 73.8581 301.606 74.4756 299.854 69.1104C298.493 64.9528 299.086 62.6117 299.419 61.7743Z" fill="#CFBB7E"/>
<path d="M314.059 63.7773C314.18 63.7773 314.278 63.6144 314.278 63.4135C314.278 63.2127 314.18 63.0498 314.059 63.0498C313.938 63.0498 313.84 63.2127 313.84 63.4135C313.84 63.6144 313.938 63.7773 314.059 63.7773Z" fill="#1B1B1B"/>
<path d="M320.229 63.7773C320.35 63.7773 320.448 63.6144 320.448 63.4135C320.448 63.2127 320.35 63.0498 320.229 63.0498C320.108 63.0498 320.01 63.2127 320.01 63.4135C320.01 63.6144 320.108 63.7773 320.229 63.7773Z" fill="#1B1B1B"/>
<path d="M316.708 64.3354C317.21 64.7626 317.9 64.7288 318.391 64.2529" stroke="#1B1B1B" stroke-linecap="round" stroke-linejoin="round"/>
<path d="M307.154 74.0564C307.162 73.9964 307.094 73.9328 307.004 73.9142C306.913 73.8956 306.833 73.9292 306.825 73.9891C306.817 74.0491 306.884 74.1127 306.975 74.1313C307.066 74.1498 307.146 74.1163 307.154 74.0564Z" fill="#9B875E"/>
<path d="M307.762 74.3928C307.81 74.3928 307.85 74.3436 307.85 74.2828C307.85 74.2221 307.81 74.1729 307.762 74.1729C307.714 74.1729 307.674 74.2221 307.674 74.2828C307.674 74.3436 307.714 74.3928 307.762 74.3928Z" fill="#9B875E"/>
<path d="M300.927 69.7385C300.976 69.7385 301.015 69.6893 301.015 69.6285C301.015 69.5678 300.976 69.5186 300.927 69.5186C300.879 69.5186 300.84 69.5678 300.84 69.6285C300.84 69.6893 300.879 69.7385 300.927 69.7385Z" fill="#9B875E"/>
<path d="M301.134 69.892C301.161 69.8817 301.176 69.8397 301.166 69.7983C301.156 69.7569 301.126 69.7317 301.098 69.742C301.07 69.7524 301.056 69.7943 301.066 69.8357C301.076 69.8772 301.106 69.9024 301.134 69.892Z" fill="#9B875E"/>
<path d="M300.408 68.2941C300.466 68.2816 300.499 68.1763 300.483 68.0589C300.467 67.9415 300.407 67.8565 300.35 67.869C300.292 67.8815 300.258 67.9868 300.274 68.1042C300.29 68.2216 300.35 68.3066 300.408 68.2941Z" fill="#9B875E"/>
<path d="M300.324 67.7528C300.358 67.7528 300.385 67.7188 300.385 67.6767C300.385 67.6347 300.358 67.6006 300.324 67.6006C300.291 67.6006 300.264 67.6347 300.264 67.6767C300.264 67.7188 300.291 67.7528 300.324 67.7528Z" fill="#9B875E"/>
<path d="M308.031 74.3788C308.073 74.3788 308.107 74.3362 308.107 74.2836C308.107 74.2311 308.073 74.1885 308.031 74.1885C307.99 74.1885 307.956 74.2311 307.956 74.2836C307.956 74.3362 307.99 74.3788 308.031 74.3788Z" fill="#9B875E"/>
</g>
<circle cx="158.5" cy="64.5" r="20" stroke="white"/>
<circle cx="158" cy="65" r="30.5" fill="#EBF6E6" fill-opacity="0.35" stroke="white"/>
<path d="M168.831 89.0398C168.969 89.2193 169.13 89.3511 169.316 89.435C169.5 89.5214 169.696 89.5582 169.903 89.5453C170.111 89.5325 170.316 89.4727 170.52 89.366C170.796 89.2218 171.004 89.0248 171.143 88.7751C171.282 88.528 171.342 88.2402 171.322 87.9119C171.301 87.5861 171.193 87.238 171 86.8675C170.803 86.4922 170.577 86.2023 170.32 85.9977C170.063 85.7957 169.794 85.682 169.512 85.6566C169.231 85.6313 168.953 85.6903 168.679 85.8337C168.478 85.9387 168.313 86.0706 168.184 86.2295C168.055 86.3909 167.97 86.5691 167.931 86.7642C167.891 86.9618 167.902 87.1671 167.963 87.3802L167.048 87.8529C166.926 87.505 166.89 87.151 166.938 86.791C166.988 86.4326 167.125 86.0977 167.351 85.7863C167.575 85.4758 167.88 85.2198 168.265 85.0184C168.707 84.7871 169.156 84.6833 169.611 84.7071C170.067 84.7326 170.494 84.8883 170.893 85.1742C171.292 85.4602 171.63 85.8667 171.905 86.3938C172.181 86.9209 172.322 87.4303 172.327 87.9219C172.334 88.4152 172.217 88.8556 171.977 89.243C171.737 89.6304 171.398 89.939 170.959 90.1686C170.588 90.3623 170.215 90.468 169.84 90.4856C169.466 90.5048 169.112 90.433 168.78 90.2702C168.447 90.1074 168.16 89.8564 167.918 89.5174L168.831 89.0398Z" fill="white"/>
<path d="M164.614 86.5101C165.004 86.3884 165.373 86.3678 165.72 86.4485C166.066 86.5314 166.369 86.7053 166.627 86.97C166.884 87.2371 167.077 87.5781 167.206 87.993C167.336 88.4079 167.371 88.7982 167.311 89.164C167.25 89.5304 167.101 89.8461 166.863 90.1113C166.624 90.3769 166.309 90.5706 165.919 90.6924C165.529 90.8142 165.161 90.8336 164.814 90.7507C164.466 90.6683 164.164 90.4935 163.907 90.2264C163.65 89.9594 163.457 89.6184 163.327 89.2035C163.198 88.7886 163.163 88.3983 163.222 88.0324C163.282 87.6684 163.432 87.3535 163.671 87.0879C163.909 86.8245 164.224 86.6319 164.614 86.5101ZM166.247 88.2952C166.168 88.042 166.061 87.8268 165.924 87.6494C165.788 87.472 165.628 87.3475 165.443 87.2758C165.259 87.2058 165.061 87.204 164.848 87.2704C164.639 87.3357 164.48 87.4491 164.37 87.6107C164.261 87.774 164.2 87.9674 164.189 88.1909C164.178 88.4143 164.212 88.6526 164.291 88.9058C164.37 89.1589 164.478 89.3751 164.615 89.5542C164.752 89.7333 164.911 89.859 165.094 89.9313C165.277 90.0035 165.473 90.007 165.682 89.9417C165.895 89.8753 166.056 89.7602 166.167 89.5963C166.278 89.4325 166.339 89.2379 166.35 89.0127C166.361 88.7875 166.326 88.5483 166.247 88.2952Z" fill="white"/>
<path d="M163.709 91.3907L162.764 91.4931L162.687 90.7763L162.634 90.7819C162.573 91.035 162.449 91.2401 162.262 91.3975C162.074 91.555 161.839 91.6489 161.559 91.6792C161.277 91.7098 161.03 91.6671 160.817 91.5512C160.603 91.4374 160.443 91.264 160.336 91.031L160.292 91.0358C160.222 91.2841 160.083 91.4891 159.875 91.6506C159.665 91.8141 159.409 91.9123 159.107 91.945C158.847 91.9732 158.612 91.9421 158.402 91.8519C158.19 91.7636 158.018 91.6175 157.885 91.4133C157.75 91.2094 157.665 90.9536 157.632 90.646L157.325 87.8145L158.317 87.7071L158.607 90.3875C158.625 90.556 158.673 90.6935 158.749 90.8001C158.824 90.9087 158.918 90.9846 159.032 91.0278C159.146 91.071 159.273 91.0851 159.412 91.07C159.571 91.0527 159.705 91.004 159.813 90.9237C159.921 90.8435 159.998 90.7388 160.046 90.6096C160.093 90.4822 160.108 90.3398 160.091 90.1823L159.805 87.5458L160.775 87.4407L161.07 90.1624C161.085 90.3052 161.129 90.4273 161.201 90.5288C161.272 90.6323 161.364 90.7075 161.478 90.7544C161.593 90.8031 161.72 90.8199 161.859 90.8048C162.002 90.7894 162.129 90.7386 162.24 90.6524C162.349 90.5665 162.431 90.4529 162.486 90.3117C162.542 90.1724 162.56 90.0176 162.542 89.8473L162.263 87.2794L163.252 87.1723L163.709 91.3907Z" fill="white"/>
<path d="M157.348 91.9345L156.377 91.8518L156.436 91.1555L156.375 91.1503C156.253 91.3488 156.093 91.5135 155.895 91.6445C155.697 91.7756 155.432 91.827 155.1 91.7987C154.77 91.7706 154.481 91.661 154.233 91.4699C153.983 91.2786 153.796 91.0122 153.671 90.6708C153.547 90.3312 153.504 89.933 153.543 89.4761C153.581 89.0247 153.69 88.6402 153.868 88.3227C154.045 88.0069 154.273 87.774 154.551 87.6239C154.829 87.4738 155.134 87.4129 155.468 87.4413C155.793 87.4689 156.044 87.5633 156.223 87.7245C156.4 87.8856 156.532 88.0724 156.619 88.285L156.66 88.2885L156.852 86.0369L157.843 86.1212L157.348 91.9345ZM156.556 89.7379C156.58 89.4627 156.562 89.2181 156.502 89.0042C156.441 88.7901 156.34 88.6198 156.199 88.4932C156.058 88.3667 155.883 88.2945 155.674 88.2767C155.46 88.2584 155.272 88.3016 155.111 88.4063C154.949 88.5107 154.821 88.6634 154.726 88.8642C154.631 89.065 154.573 89.2993 154.55 89.5673C154.527 89.8333 154.546 90.0715 154.605 90.2817C154.663 90.4936 154.763 90.663 154.906 90.7897C155.047 90.9163 155.225 90.9887 155.442 91.0072C155.655 91.0253 155.841 90.9857 156.001 90.8884C156.159 90.7909 156.285 90.6436 156.38 90.4465C156.474 90.2494 156.533 90.0132 156.556 89.7379Z" fill="white"/>
<path d="M152.691 87.0707L153.666 87.2682L152.542 92.813L151.567 92.6155L152.691 87.0707Z" fill="white"/>
<path d="M150.613 86.4051C151.014 86.5353 151.335 86.7325 151.577 86.9967C151.816 87.2621 151.964 87.5763 152.02 87.9393C152.076 88.304 152.036 88.6957 151.9 89.1143C151.766 89.526 151.569 89.8647 151.309 90.1306C151.048 90.3965 150.746 90.5704 150.402 90.6524C150.056 90.7337 149.693 90.7127 149.313 90.5894C148.969 90.478 148.682 90.3035 148.452 90.0659C148.221 89.8284 148.073 89.5297 148.008 89.1697C147.942 88.8114 147.983 88.4055 148.13 87.9518L148.225 87.6601L151.039 88.5734C151.109 88.3446 151.128 88.133 151.097 87.9387C151.064 87.7462 150.985 87.5812 150.859 87.4436C150.734 87.3059 150.568 87.2039 150.363 87.1374C150.165 87.0731 149.984 87.0568 149.819 87.0884C149.652 87.1194 149.515 87.1884 149.409 87.2952L148.484 86.995C148.617 86.7808 148.791 86.6117 149.006 86.4877C149.22 86.3655 149.464 86.2957 149.739 86.2783C150.013 86.2628 150.304 86.305 150.613 86.4051ZM148.926 88.5963C148.867 88.7785 148.853 88.9542 148.885 89.1234C148.915 89.2938 148.987 89.442 149.101 89.5681C149.213 89.6953 149.358 89.7879 149.537 89.8459C149.721 89.9056 149.9 89.9164 150.075 89.8783C150.248 89.8397 150.401 89.7613 150.532 89.6432C150.662 89.5269 150.761 89.3837 150.828 89.2137L148.926 88.5963Z" fill="white"/>
<path d="M145.485 88.11L146.239 88.4662L147.178 86.4778C147.235 86.3562 147.261 86.2535 147.256 86.1695C147.248 86.0865 147.219 86.0184 147.166 85.9652C147.112 85.9112 147.04 85.8626 146.948 85.8194C146.865 85.7801 146.74 85.7285 146.575 85.6647L146.923 84.9277C147.088 84.9751 147.264 85.0428 147.45 85.1309C147.682 85.2402 147.87 85.376 148.015 85.5383C148.158 85.7015 148.244 85.8866 148.273 86.0935C148.3 86.2997 148.258 86.5193 148.148 86.7525L147.138 88.8908L147.683 89.1479L147.355 89.8423L146.81 89.5852L146.376 90.5045L145.477 90.0799L145.911 89.1606L145.157 88.8044L145.485 88.11Z" fill="white"/>
<path d="M145.393 83.9145C145.748 84.1422 146.009 84.4145 146.175 84.7314C146.339 85.0488 146.402 85.3902 146.365 85.7556C146.326 86.1225 146.188 86.4913 145.951 86.8617C145.717 87.226 145.44 87.5037 145.121 87.6948C144.801 87.8859 144.465 87.9774 144.111 87.9693C143.756 87.9603 143.41 87.8479 143.074 87.6321C142.77 87.4372 142.537 87.1956 142.374 86.9073C142.211 86.619 142.143 86.2925 142.172 85.9278C142.199 85.5646 142.341 85.1822 142.599 84.7808L142.764 84.5227L145.255 86.12C145.381 85.9165 145.453 85.7168 145.472 85.5208C145.489 85.3264 145.455 85.1466 145.368 84.9816C145.281 84.8166 145.147 84.676 144.966 84.5596C144.791 84.4473 144.619 84.3854 144.452 84.3741C144.282 84.3617 144.133 84.3938 144.003 84.4701L143.184 83.9451C143.368 83.7718 143.579 83.6523 143.818 83.5868C144.056 83.5228 144.31 83.5173 144.58 83.5703C144.849 83.6248 145.12 83.7395 145.393 83.9145ZM143.205 85.6061C143.102 85.7673 143.044 85.9338 143.032 86.1057C143.018 86.2781 143.05 86.4397 143.128 86.5906C143.204 86.742 143.321 86.8684 143.479 86.9698C143.642 87.0742 143.813 87.1302 143.992 87.1377C144.169 87.1443 144.336 87.1071 144.493 87.0262C144.649 86.9468 144.781 86.8334 144.889 86.6859L143.205 85.6061Z" fill="white"/>
<path d="M141.736 41.2649L142.618 40.7655L143.799 42.852L146.09 41.555L144.909 39.4684L145.796 38.9662L148.583 43.8894L147.696 44.3916L146.511 42.2978L144.22 43.5948L145.405 45.6886L144.523 46.1881L141.736 41.2649Z" fill="white"/>
<path d="M150.366 43.4136C149.968 43.5528 149.592 43.5903 149.24 43.5262C148.889 43.4597 148.581 43.2991 148.317 43.0444C148.051 42.7879 147.846 42.452 147.701 42.0365C147.558 41.628 147.51 41.239 147.556 40.8697C147.603 40.5003 147.738 40.1789 147.962 39.9053C148.188 39.6312 148.49 39.4281 148.867 39.2962C149.208 39.1771 149.542 39.1422 149.869 39.1915C150.197 39.2409 150.496 39.3891 150.765 39.6362C151.035 39.8815 151.248 40.2293 151.405 40.6795L151.507 40.969L148.714 41.9456C148.796 42.1704 148.909 42.3505 149.052 42.4858C149.194 42.6194 149.357 42.703 149.541 42.7364C149.724 42.7698 149.917 42.7509 150.121 42.6798C150.317 42.6111 150.472 42.5142 150.584 42.3891C150.698 42.2634 150.765 42.1258 150.785 41.9764L151.703 41.6554C151.726 41.9067 151.69 42.1466 151.594 42.3751C151.498 42.6019 151.346 42.8054 151.138 42.9855C150.929 43.1639 150.672 43.3066 150.366 43.4136ZM150.382 40.6482C150.319 40.4674 150.223 40.3195 150.095 40.2043C149.968 40.0867 149.821 40.0123 149.654 39.981C149.488 39.9473 149.316 39.9615 149.139 40.0235C148.957 40.0873 148.807 40.1873 148.691 40.3236C148.576 40.4592 148.503 40.6138 148.47 40.7872C148.436 40.959 148.444 41.1327 148.494 41.3085L150.382 40.6482Z" fill="white"/>
<path d="M153.221 42.5443L152.251 42.7641L151.001 37.2465L151.97 37.0267L153.221 42.5443Z" fill="white"/>
<path d="M153.004 36.7853L156.602 36.3955L156.694 37.2468L154.104 37.5275L154.27 39.0599L156.613 38.8061L156.705 39.6547L154.362 39.9085L154.621 42.3006L153.613 42.4098L153.004 36.7853Z" fill="white"/>
<path d="M159.095 42.206C158.686 42.184 158.334 42.0745 158.036 41.8777C157.741 41.6791 157.518 41.4107 157.369 41.0725C157.221 40.7326 157.159 40.3456 157.183 39.9116C157.206 39.4776 157.31 39.0996 157.493 38.7775C157.678 38.4556 157.928 38.2118 158.243 38.0463C158.56 37.8808 158.923 37.8091 159.331 37.8312C159.739 37.8533 160.091 37.9636 160.387 38.1622C160.684 38.3608 160.906 38.6301 161.054 38.9701C161.202 39.3101 161.264 39.697 161.24 40.131C161.217 40.565 161.113 40.943 160.93 41.2651C160.747 41.5853 160.496 41.8281 160.18 41.9936C159.865 42.1573 159.503 42.2281 159.095 42.206ZM158.187 39.9631C158.172 40.2279 158.198 40.4673 158.264 40.6811C158.33 40.8949 158.437 41.0676 158.585 41.1991C158.733 41.3289 158.918 41.3997 159.14 41.4118C159.359 41.4236 159.548 41.373 159.707 41.2598C159.867 41.1449 159.991 40.9847 160.079 40.7792C160.168 40.5738 160.219 40.3386 160.234 40.0738C160.248 39.809 160.222 39.5688 160.156 39.3531C160.091 39.1375 159.985 38.9639 159.839 38.8325C159.693 38.701 159.51 38.6293 159.291 38.6175C159.069 38.6055 158.877 38.6569 158.716 38.7717C158.555 38.8866 158.43 39.0477 158.341 39.255C158.253 39.4623 158.201 39.6983 158.187 39.9631Z" fill="white"/>
<path d="M162.748 42.6987C162.349 42.6114 162.018 42.4468 161.756 42.2048C161.496 41.9614 161.32 41.6608 161.227 41.3029C161.135 40.9437 161.136 40.5518 161.229 40.1272C161.322 39.7026 161.485 39.3461 161.717 39.0576C161.952 38.7696 162.238 38.5691 162.576 38.4563C162.915 38.3438 163.284 38.3313 163.684 38.4186C164.083 38.5059 164.413 38.6712 164.672 38.9146C164.934 39.1584 165.11 39.4599 165.201 39.8192C165.293 40.1784 165.292 40.5703 165.199 40.9949C165.106 41.4195 164.943 41.776 164.711 42.0645C164.478 42.3511 164.192 42.5507 163.853 42.6631C163.516 42.7742 163.148 42.786 162.748 42.6987ZM162.212 40.3392C162.155 40.5983 162.142 40.8386 162.173 41.0603C162.204 41.2819 162.282 41.4695 162.406 41.623C162.532 41.7748 162.703 41.8745 162.921 41.9221C163.135 41.9689 163.33 41.9492 163.505 41.8631C163.68 41.7752 163.829 41.637 163.949 41.4484C164.069 41.2598 164.158 41.036 164.214 40.7769C164.271 40.5178 164.284 40.2766 164.254 40.0532C164.224 39.8297 164.147 39.6414 164.024 39.4883C163.901 39.3351 163.732 39.2351 163.518 39.1883C163.301 39.1407 163.103 39.1607 162.926 39.2482C162.748 39.3357 162.599 39.4746 162.478 39.665C162.357 39.8554 162.269 40.0801 162.212 40.3392Z" fill="white"/>
<path d="M167.702 38.1201L167.6 42.5604L167.661 42.5869L170.849 39.493L171.991 39.9912L169.729 45.1767L168.833 44.7857L170.389 41.2181L170.341 41.1971L167.353 44.1222L166.685 43.8306L166.799 39.637L166.756 39.6183L165.194 43.1985L164.298 42.8075L166.56 37.622L167.702 38.1201Z" fill="white"/>
<path d="M170.857 46.2287C170.51 45.9895 170.258 45.7087 170.102 45.3866C169.949 45.0639 169.897 44.7206 169.946 44.3566C169.997 43.9911 170.147 43.6272 170.397 43.2647C170.642 42.9083 170.928 42.6399 171.253 42.4595C171.579 42.279 171.918 42.1987 172.272 42.2184C172.626 42.2391 172.968 42.3629 173.297 42.5896C173.595 42.7944 173.82 43.0436 173.973 43.3371C174.127 43.6306 174.183 43.9592 174.143 44.3228C174.104 44.6849 173.949 45.0623 173.678 45.4551L173.504 45.7076L171.068 44.029C170.935 44.2282 170.856 44.4255 170.831 44.6207C170.807 44.8145 170.836 44.9953 170.917 45.163C170.998 45.3308 171.128 45.4758 171.305 45.5981C171.476 45.7161 171.646 45.7836 171.813 45.8005C171.982 45.8184 172.132 45.7913 172.265 45.7193L173.065 46.271C172.876 46.4382 172.661 46.5506 172.421 46.6082C172.181 46.6643 171.926 46.6614 171.658 46.5996C171.391 46.5362 171.124 46.4126 170.857 46.2287ZM173.099 44.6102C173.208 44.4525 173.271 44.288 173.288 44.1166C173.308 43.9448 173.282 43.7822 173.209 43.6288C173.138 43.475 173.025 43.3448 172.871 43.2382C172.711 43.1285 172.542 43.0669 172.364 43.0535C172.187 43.041 172.018 43.0727 171.859 43.1484C171.7 43.2226 171.565 43.3316 171.452 43.4755L173.099 44.6102Z" fill="white"/>
<path d="M141.122 79.5132L137.933 72.1761L130.596 75.3646L133.785 82.7017L141.122 79.5132Z" fill="white"/>
<path d="M136.815 73.0108L136.556 65.015L128.56 65.2743L128.819 73.2701L136.815 73.0108Z" fill="white"/>
<path d="M137.42 56.9289L135.794 64.762L127.961 63.1362L129.587 55.3032L137.42 56.9289Z" fill="white"/>
<path d="M141.621 49.9392L137.453 56.7674L130.624 52.5989L134.793 45.7707L141.621 49.9392Z" fill="white"/>
<path d="M174.875 79.5132L178.063 72.1761L185.4 75.3646L182.212 82.7017L174.875 79.5132Z" fill="white"/>
<path d="M179.182 73.0108L179.441 65.015L187.437 65.2743L187.177 73.2701L179.182 73.0108Z" fill="white"/>
<path d="M178.577 56.9289L180.203 64.762L188.036 63.1362L186.41 55.3032L178.577 56.9289Z" fill="white"/>
<path d="M174.376 49.9392L178.544 56.7674L185.372 52.5989L181.204 45.7707L174.376 49.9392Z" fill="white"/>
<g clip-path="url(#clip9_1145_4096)">
<path d="M146.419 61.7743C146.527 61.5015 146.591 61.2075 146.622 60.9051C146.686 60.2961 146.878 59.2873 147.454 58.7163C148.318 57.8619 149.341 56.2505 149.969 55.7556C150.597 55.2608 151.724 54.7025 153.192 54.3747C154.659 54.0469 154.425 53.3236 156.443 53.0593C158.461 52.7949 161.317 53.4548 162.496 53.9792C163.676 54.5037 165.535 55.3602 166.767 56.6756C167.998 57.9909 169.885 62.1676 169.938 63.2863C169.99 64.4051 170.645 70.2588 166.191 72.2974C161.736 74.336 165.352 74.4016 159.273 74.7632C153.195 75.1249 154.561 75.0931 152.459 74.4756C150.356 73.8581 148.606 74.4756 146.854 69.1104C145.493 64.9528 146.086 62.6117 146.419 61.7743Z" fill="#CFBB7E"/>
<path d="M161.059 63.7773C161.18 63.7773 161.278 63.6144 161.278 63.4135C161.278 63.2127 161.18 63.0498 161.059 63.0498C160.938 63.0498 160.84 63.2127 160.84 63.4135C160.84 63.6144 160.938 63.7773 161.059 63.7773Z" fill="#1B1B1B"/>
<path d="M167.229 63.7773C167.35 63.7773 167.448 63.6144 167.448 63.4135C167.448 63.2127 167.35 63.0498 167.229 63.0498C167.108 63.0498 167.01 63.2127 167.01 63.4135C167.01 63.6144 167.108 63.7773 167.229 63.7773Z" fill="#1B1B1B"/>
<path d="M163.708 64.3354C164.21 64.7626 164.9 64.7288 165.391 64.2529" stroke="#1B1B1B" stroke-linecap="round" stroke-linejoin="round"/>
<path d="M154.154 74.0564C154.162 73.9964 154.094 73.9328 154.004 73.9142C153.913 73.8956 153.833 73.9292 153.825 73.9891C153.817 74.0491 153.884 74.1127 153.975 74.1313C154.066 74.1498 154.146 74.1163 154.154 74.0564Z" fill="#9B875E"/>
<path d="M154.762 74.3928C154.81 74.3928 154.85 74.3436 154.85 74.2828C154.85 74.2221 154.81 74.1729 154.762 74.1729C154.714 74.1729 154.674 74.2221 154.674 74.2828C154.674 74.3436 154.714 74.3928 154.762 74.3928Z" fill="#9B875E"/>
<path d="M147.927 69.7385C147.976 69.7385 148.015 69.6893 148.015 69.6285C148.015 69.5678 147.976 69.5186 147.927 69.5186C147.879 69.5186 147.84 69.5678 147.84 69.6285C147.84 69.6893 147.879 69.7385 147.927 69.7385Z" fill="#9B875E"/>
<path d="M148.134 69.892C148.161 69.8817 148.176 69.8397 148.166 69.7983C148.156 69.7569 148.126 69.7317 148.098 69.742C148.07 69.7524 148.056 69.7943 148.066 69.8357C148.076 69.8772 148.106 69.9024 148.134 69.892Z" fill="#9B875E"/>
<path d="M147.408 68.2941C147.466 68.2816 147.499 68.1763 147.483 68.0589C147.467 67.9415 147.407 67.8565 147.35 67.869C147.292 67.8815 147.258 67.9868 147.274 68.1042C147.29 68.2216 147.35 68.3066 147.408 68.2941Z" fill="#9B875E"/>
<path d="M147.324 67.7528C147.358 67.7528 147.385 67.7188 147.385 67.6767C147.385 67.6347 147.358 67.6006 147.324 67.6006C147.291 67.6006 147.264 67.6347 147.264 67.6767C147.264 67.7188 147.291 67.7528 147.324 67.7528Z" fill="#9B875E"/>
<path d="M155.031 74.3788C155.073 74.3788 155.107 74.3362 155.107 74.2836C155.107 74.2311 155.073 74.1885 155.031 74.1885C154.99 74.1885 154.956 74.2311 154.956 74.2836C154.956 74.3362 154.99 74.3788 155.031 74.3788Z" fill="#9B875E"/>
</g>
<defs>
<filter id="filter0_i_1145_4096" x="55" y="42" width="364.68" height="381.89" filterUnits="userSpaceOnUse" color-interpolation-filters="sRGB">
<feFlood flood-opacity="0" result="BackgroundImageFix"/>
<feBlend mode="normal" in="SourceGraphic" in2="BackgroundImageFix" result="shape"/>
<feColorMatrix in="SourceAlpha" type="matrix" values="0 0 0 0 0 0 0 0 0 0 0 0 0 0 0 0 0 0 127 0" result="hardAlpha"/>
<feOffset dx="2" dy="-3"/>
<feGaussianBlur stdDeviation="2.75"/>
<feComposite in2="hardAlpha" operator="arithmetic" k2="-1" k3="1"/>
<feColorMatrix type="matrix" values="0 0 0 0 0.2 0 0 0 0 0.2 0 0 0 0 0.2 0 0 0 0.25 0"/>
<feBlend mode="normal" in2="shape" result="effect1_innerShadow_1145_4096"/>
</filter>
<filter id="filter1_i_1145_4096" x="321" y="169" width="36" height="29" filterUnits="userSpaceOnUse" color-interpolation-filters="sRGB">
<feFlood flood-opacity="0" result="BackgroundImageFix"/>
<feBlend mode="normal" in="SourceGraphic" in2="BackgroundImageFix" result="shape"/>
<feColorMatrix in="SourceAlpha" type="matrix" values="0 0 0 0 0 0 0 0 0 0 0 0 0 0 0 0 0 0 127 0" result="hardAlpha"/>
<feOffset dx="2" dy="-2"/>
<feGaussianBlur stdDeviation="2"/>
<feComposite in2="hardAlpha" operator="arithmetic" k2="-1" k3="1"/>
<feColorMatrix type="matrix" values="0 0 0 0 0 0 0 0 0 0 0 0 0 0 0 0 0 0 0.25 0"/>
<feBlend mode="normal" in2="shape" result="effect1_innerShadow_1145_4096"/>
</filter>
<filter id="filter2_i_1145_4096" x="333" y="177" width="11.1221" height="12.1953" filterUnits="userSpaceOnUse" color-interpolation-filters="sRGB">
<feFlood flood-opacity="0" result="BackgroundImageFix"/>
<feBlend mode="normal" in="SourceGraphic" in2="BackgroundImageFix" result="shape"/>
<feColorMatrix in="SourceAlpha" type="matrix" values="0 0 0 0 0 0 0 0 0 0 0 0 0 0 0 0 0 0 127 0" result="hardAlpha"/>
<feOffset dy="-1"/>
<feGaussianBlur stdDeviation="2"/>
<feComposite in2="hardAlpha" operator="arithmetic" k2="-1" k3="1"/>
<feColorMatrix type="matrix" values="0 0 0 0 0 0 0 0 0 0 0 0 0 0 0 0 0 0 0.25 0"/>
<feBlend mode="normal" in2="shape" result="effect1_innerShadow_1145_4096"/>
</filter>
<filter id="filter3_i_1145_4096" x="117" y="108" width="36" height="29" filterUnits="userSpaceOnUse" color-interpolation-filters="sRGB">
<feFlood flood-opacity="0" result="BackgroundImageFix"/>
<feBlend mode="normal" in="SourceGraphic" in2="BackgroundImageFix" result="shape"/>
<feColorMatrix in="SourceAlpha" type="matrix" values="0 0 0 0 0 0 0 0 0 0 0 0 0 0 0 0 0 0 127 0" result="hardAlpha"/>
<feOffset dx="2" dy="-2"/>
<feGaussianBlur stdDeviation="2"/>
<feComposite in2="hardAlpha" operator="arithmetic" k2="-1" k3="1"/>
<feColorMatrix type="matrix" values="0 0 0 0 0 0 0 0 0 0 0 0 0 0 0 0 0 0 0.25 0"/>
<feBlend mode="normal" in2="shape" result="effect1_innerShadow_1145_4096"/>
</filter>
<filter id="filter4_i_1145_4096" x="129" y="116" width="11.1221" height="12.1953" filterUnits="userSpaceOnUse" color-interpolation-filters="sRGB">
<feFlood flood-opacity="0" result="BackgroundImageFix"/>
<feBlend mode="normal" in="SourceGraphic" in2="BackgroundImageFix" result="shape"/>
<feColorMatrix in="SourceAlpha" type="matrix" values="0 0 0 0 0 0 0 0 0 0 0 0 0 0 0 0 0 0 127 0" result="hardAlpha"/>
<feOffset dy="-1"/>
<feGaussianBlur stdDeviation="2"/>
<feComposite in2="hardAlpha" operator="arithmetic" k2="-1" k3="1"/>
<feColorMatrix type="matrix" values="0 0 0 0 0 0 0 0 0 0 0 0 0 0 0 0 0 0 0.25 0"/>
<feBlend mode="normal" in2="shape" result="effect1_innerShadow_1145_4096"/>
</filter>
<filter id="filter5_i_1145_4096" x="376" y="20" width="36" height="29" filterUnits="userSpaceOnUse" color-interpolation-filters="sRGB">
<feFlood flood-opacity="0" result="BackgroundImageFix"/>
<feBlend mode="normal" in="SourceGraphic" in2="BackgroundImageFix" result="shape"/>
<feColorMatrix in="SourceAlpha" type="matrix" values="0 0 0 0 0 0 0 0 0 0 0 0 0 0 0 0 0 0 127 0" result="hardAlpha"/>
<feOffset dx="2" dy="-2"/>
<feGaussianBlur stdDeviation="2"/>
<feComposite in2="hardAlpha" operator="arithmetic" k2="-1" k3="1"/>
<feColorMatrix type="matrix" values="0 0 0 0 0 0 0 0 0 0 0 0 0 0 0 0 0 0 0.25 0"/>
<feBlend mode="normal" in2="shape" result="effect1_innerShadow_1145_4096"/>
</filter>
<filter id="filter6_i_1145_4096" x="388" y="28" width="11.1221" height="12.1953" filterUnits="userSpaceOnUse" color-interpolation-filters="sRGB">
<feFlood flood-opacity="0" result="BackgroundImageFix"/>
<feBlend mode="normal" in="SourceGraphic" in2="BackgroundImageFix" result="shape"/>
<feColorMatrix in="SourceAlpha" type="matrix" values="0 0 0 0 0 0 0 0 0 0 0 0 0 0 0 0 0 0 127 0" result="hardAlpha"/>
<feOffset dy="-1"/>
<feGaussianBlur stdDeviation="2"/>
<feComposite in2="hardAlpha" operator="arithmetic" k2="-1" k3="1"/>
<feColorMatrix type="matrix" values="0 0 0 0 0 0 0 0 0 0 0 0 0 0 0 0 0 0 0.25 0"/>
<feBlend mode="normal" in2="shape" result="effect1_innerShadow_1145_4096"/>
</filter>
<filter id="filter7_i_1145_4096" x="414" y="420" width="36" height="29" filterUnits="userSpaceOnUse" color-interpolation-filters="sRGB">
<feFlood flood-opacity="0" result="BackgroundImageFix"/>
<feBlend mode="normal" in="SourceGraphic" in2="BackgroundImageFix" result="shape"/>
<feColorMatrix in="SourceAlpha" type="matrix" values="0 0 0 0 0 0 0 0 0 0 0 0 0 0 0 0 0 0 127 0" result="hardAlpha"/>
<feOffset dx="2" dy="-2"/>
<feGaussianBlur stdDeviation="2"/>
<feComposite in2="hardAlpha" operator="arithmetic" k2="-1" k3="1"/>
<feColorMatrix type="matrix" values="0 0 0 0 0 0 0 0 0 0 0 0 0 0 0 0 0 0 0.25 0"/>
<feBlend mode="normal" in2="shape" result="effect1_innerShadow_1145_4096"/>
</filter>
<filter id="filter8_i_1145_4096" x="426" y="428" width="11.1221" height="12.1953" filterUnits="userSpaceOnUse" color-interpolation-filters="sRGB">
<feFlood flood-opacity="0" result="BackgroundImageFix"/>
<feBlend mode="normal" in="SourceGraphic" in2="BackgroundImageFix" result="shape"/>
<feColorMatrix in="SourceAlpha" type="matrix" values="0 0 0 0 0 0 0 0 0 0 0 0 0 0 0 0 0 0 127 0" result="hardAlpha"/>
<feOffset dy="-1"/>
<feGaussianBlur stdDeviation="2"/>
<feComposite in2="hardAlpha" operator="arithmetic" k2="-1" k3="1"/>
<feColorMatrix type="matrix" values="0 0 0 0 0 0 0 0 0 0 0 0 0 0 0 0 0 0 0.25 0"/>
<feBlend mode="normal" in2="shape" result="effect1_innerShadow_1145_4096"/>
</filter>
<filter id="filter9_i_1145_4096" x="21" y="285" width="36" height="29" filterUnits="userSpaceOnUse" color-interpolation-filters="sRGB">
<feFlood flood-opacity="0" result="BackgroundImageFix"/>
<feBlend mode="normal" in="SourceGraphic" in2="BackgroundImageFix" result="shape"/>
<feColorMatrix in="SourceAlpha" type="matrix" values="0 0 0 0 0 0 0 0 0 0 0 0 0 0 0 0 0 0 127 0" result="hardAlpha"/>
<feOffset dx="2" dy="-2"/>
<feGaussianBlur stdDeviation="2"/>
<feComposite in2="hardAlpha" operator="arithmetic" k2="-1" k3="1"/>
<feColorMatrix type="matrix" values="0 0 0 0 0 0 0 0 0 0 0 0 0 0 0 0 0 0 0.25 0"/>
<feBlend mode="normal" in2="shape" result="effect1_innerShadow_1145_4096"/>
</filter>
<filter id="filter10_i_1145_4096" x="33" y="293" width="11.1221" height="12.1953" filterUnits="userSpaceOnUse" color-interpolation-filters="sRGB">
<feFlood flood-opacity="0" result="BackgroundImageFix"/>
<feBlend mode="normal" in="SourceGraphic" in2="BackgroundImageFix" result="shape"/>
<feColorMatrix in="SourceAlpha" type="matrix" values="0 0 0 0 0 0 0 0 0 0 0 0 0 0 0 0 0 0 127 0" result="hardAlpha"/>
<feOffset dy="-1"/>
<feGaussianBlur stdDeviation="2"/>
<feComposite in2="hardAlpha" operator="arithmetic" k2="-1" k3="1"/>
<feColorMatrix type="matrix" values="0 0 0 0 0 0 0 0 0 0 0 0 0 0 0 0 0 0 0.25 0"/>
<feBlend mode="normal" in2="shape" result="effect1_innerShadow_1145_4096"/>
</filter>
<filter id="filter11_i_1145_4096" x="51" y="323.497" width="36.9904" height="30.5029" filterUnits="userSpaceOnUse" color-interpolation-filters="sRGB">
<feFlood flood-opacity="0" result="BackgroundImageFix"/>
<feBlend mode="normal" in="SourceGraphic" in2="BackgroundImageFix" result="shape"/>
<feColorMatrix in="SourceAlpha" type="matrix" values="0 0 0 0 0 0 0 0 0 0 0 0 0 0 0 0 0 0 127 0" result="hardAlpha"/>
<feOffset dy="-4"/>
<feGaussianBlur stdDeviation="0.75"/>
<feComposite in2="hardAlpha" operator="arithmetic" k2="-1" k3="1"/>
<feColorMatrix type="matrix" values="0 0 0 0 0.197038 0 0 0 0 0.139902 0 0 0 0 0.139902 0 0 0 0.25 0"/>
<feBlend mode="normal" in2="shape" result="effect1_innerShadow_1145_4096"/>
</filter>
<filter id="filter12_i_1145_4096" x="0" y="328.5" width="69" height="44.5" filterUnits="userSpaceOnUse" color-interpolation-filters="sRGB">
<feFlood flood-opacity="0" result="BackgroundImageFix"/>
<feBlend mode="normal" in="SourceGraphic" in2="BackgroundImageFix" result="shape"/>
<feColorMatrix in="SourceAlpha" type="matrix" values="0 0 0 0 0 0 0 0 0 0 0 0 0 0 0 0 0 0 127 0" result="hardAlpha"/>
<feOffset dy="-8"/>
<feGaussianBlur stdDeviation="0.75"/>
<feComposite in2="hardAlpha" operator="arithmetic" k2="-1" k3="1"/>
<feColorMatrix type="matrix" values="0 0 0 0 0.280127 0 0 0 0 0.250669 0 0 0 0 0.250669 0 0 0 0.25 0"/>
<feBlend mode="normal" in2="shape" result="effect1_innerShadow_1145_4096"/>
</filter>
<filter id="filter13_i_1145_4096" x="344" y="143" width="30" height="39" filterUnits="userSpaceOnUse" color-interpolation-filters="sRGB">
<feFlood flood-opacity="0" result="BackgroundImageFix"/>
<feBlend mode="normal" in="SourceGraphic" in2="BackgroundImageFix" result="shape"/>
<feColorMatrix in="SourceAlpha" type="matrix" values="0 0 0 0 0 0 0 0 0 0 0 0 0 0 0 0 0 0 127 0" result="hardAlpha"/>
<feOffset dy="-2"/>
<feGaussianBlur stdDeviation="1"/>
<feComposite in2="hardAlpha" operator="arithmetic" k2="-1" k3="1"/>
<feColorMatrix type="matrix" values="0 0 0 0 0.2 0 0 0 0 0.2 0 0 0 0 0.2 0 0 0 0.25 0"/>
<feBlend mode="normal" in2="shape" result="effect1_innerShadow_1145_4096"/>
</filter>
<filter id="filter14_i_1145_4096" x="376" y="408" width="39.7903" height="41.3418" filterUnits="userSpaceOnUse" color-interpolation-filters="sRGB">
<feFlood flood-opacity="0" result="BackgroundImageFix"/>
<feBlend mode="normal" in="SourceGraphic" in2="BackgroundImageFix" result="shape"/>
<feColorMatrix in="SourceAlpha" type="matrix" values="0 0 0 0 0 0 0 0 0 0 0 0 0 0 0 0 0 0 127 0" result="hardAlpha"/>
<feOffset dy="-2"/>
<feGaussianBlur stdDeviation="1"/>
<feComposite in2="hardAlpha" operator="arithmetic" k2="-1" k3="1"/>
<feColorMatrix type="matrix" values="0 0 0 0 0.2 0 0 0 0 0.2 0 0 0 0 0.2 0 0 0 0.25 0"/>
<feBlend mode="normal" in2="shape" result="effect1_innerShadow_1145_4096"/>
</filter>
<filter id="filter15_i_1145_4096" x="177" y="354" width="37" height="34" filterUnits="userSpaceOnUse" color-interpolation-filters="sRGB">
<feFlood flood-opacity="0" result="BackgroundImageFix"/>
<feBlend mode="normal" in="SourceGraphic" in2="BackgroundImageFix" result="shape"/>
<feColorMatrix in="SourceAlpha" type="matrix" values="0 0 0 0 0 0 0 0 0 0 0 0 0 0 0 0 0 0 127 0" result="hardAlpha"/>
<feOffset dy="-4"/>
<feGaussianBlur stdDeviation="1.5"/>
<feComposite in2="hardAlpha" operator="arithmetic" k2="-1" k3="1"/>
<feColorMatrix type="matrix" values="0 0 0 0 0.2 0 0 0 0 0.2 0 0 0 0 0.2 0 0 0 0.25 0"/>
<feBlend mode="normal" in2="shape" result="effect1_innerShadow_1145_4096"/>
</filter>
<filter id="filter16_i_1145_4096" x="203" y="359" width="37" height="34" filterUnits="userSpaceOnUse" color-interpolation-filters="sRGB">
<feFlood flood-opacity="0" result="BackgroundImageFix"/>
<feBlend mode="normal" in="SourceGraphic" in2="BackgroundImageFix" result="shape"/>
<feColorMatrix in="SourceAlpha" type="matrix" values="0 0 0 0 0 0 0 0 0 0 0 0 0 0 0 0 0 0 127 0" result="hardAlpha"/>
<feOffset dy="-4"/>
<feGaussianBlur stdDeviation="1.5"/>
<feComposite in2="hardAlpha" operator="arithmetic" k2="-1" k3="1"/>
<feColorMatrix type="matrix" values="0 0 0 0 0.2 0 0 0 0 0.2 0 0 0 0 0.2 0 0 0 0.25 0"/>
<feBlend mode="normal" in2="shape" result="effect1_innerShadow_1145_4096"/>
</filter>
<filter id="filter17_i_1145_4096" x="26" y="10" width="37" height="34" filterUnits="userSpaceOnUse" color-interpolation-filters="sRGB">
<feFlood flood-opacity="0" result="BackgroundImageFix"/>
<feBlend mode="normal" in="SourceGraphic" in2="BackgroundImageFix" result="shape"/>
<feColorMatrix in="SourceAlpha" type="matrix" values="0 0 0 0 0 0 0 0 0 0 0 0 0 0 0 0 0 0 127 0" result="hardAlpha"/>
<feOffset dy="-4"/>
<feGaussianBlur stdDeviation="1.5"/>
<feComposite in2="hardAlpha" operator="arithmetic" k2="-1" k3="1"/>
<feColorMatrix type="matrix" values="0 0 0 0 0.2 0 0 0 0 0.2 0 0 0 0 0.2 0 0 0 0.25 0"/>
<feBlend mode="normal" in2="shape" result="effect1_innerShadow_1145_4096"/>
</filter>
<filter id="filter18_i_1145_4096" x="49" y="21" width="37" height="34" filterUnits="userSpaceOnUse" color-interpolation-filters="sRGB">
<feFlood flood-opacity="0" result="BackgroundImageFix"/>
<feBlend mode="normal" in="SourceGraphic" in2="BackgroundImageFix" result="shape"/>
<feColorMatrix in="SourceAlpha" type="matrix" values="0 0 0 0 0 0 0 0 0 0 0 0 0 0 0 0 0 0 127 0" result="hardAlpha"/>
<feOffset dy="-4"/>
<feGaussianBlur stdDeviation="1.5"/>
<feComposite in2="hardAlpha" operator="arithmetic" k2="-1" k3="1"/>
<feColorMatrix type="matrix" values="0 0 0 0 0.2 0 0 0 0 0.2 0 0 0 0 0.2 0 0 0 0.25 0"/>
<feBlend mode="normal" in2="shape" result="effect1_innerShadow_1145_4096"/>
</filter>
<filter id="filter19_i_1145_4096" x="21" y="32" width="37" height="34" filterUnits="userSpaceOnUse" color-interpolation-filters="sRGB">
<feFlood flood-opacity="0" result="BackgroundImageFix"/>
<feBlend mode="normal" in="SourceGraphic" in2="BackgroundImageFix" result="shape"/>
<feColorMatrix in="SourceAlpha" type="matrix" values="0 0 0 0 0 0 0 0 0 0 0 0 0 0 0 0 0 0 127 0" result="hardAlpha"/>
<feOffset dy="-4"/>
<feGaussianBlur stdDeviation="1.5"/>
<feComposite in2="hardAlpha" operator="arithmetic" k2="-1" k3="1"/>
<feColorMatrix type="matrix" values="0 0 0 0 0.2 0 0 0 0 0.2 0 0 0 0 0.2 0 0 0 0.25 0"/>
<feBlend mode="normal" in2="shape" result="effect1_innerShadow_1145_4096"/>
</filter>
<clipPath id="clip0_1145_4096">
<rect width="362.68" height="378.89" fill="white" transform="translate(55 45)"/>
</clipPath>
<clipPath id="clip1_1145_4096">
<rect width="34" height="27" fill="white" transform="translate(321 171)"/>
</clipPath>
<clipPath id="clip2_1145_4096">
<rect width="34" height="27" fill="white" transform="translate(117 110)"/>
</clipPath>
<clipPath id="clip3_1145_4096">
<rect width="34" height="27" fill="white" transform="translate(376 22)"/>
</clipPath>
<clipPath id="clip4_1145_4096">
<rect width="34" height="27" fill="white" transform="translate(414 422)"/>
</clipPath>
<clipPath id="clip5_1145_4096">
<rect width="34" height="27" fill="white" transform="translate(21 287)"/>
</clipPath>
<clipPath id="clip6_1145_4096">
<rect width="37" height="29" fill="white" transform="translate(51 325)"/>
</clipPath>
<clipPath id="clip7_1145_4096">
<rect width="69" height="43" fill="white" transform="translate(0 330)"/>
</clipPath>
<clipPath id="clip8_1145_4096">
<rect width="24" height="22" fill="white" transform="translate(299 53)"/>
</clipPath>
<clipPath id="clip9_1145_4096">
<rect width="24" height="22" fill="white" transform="translate(146 53)"/>
</clipPath>
</defs>
</svg>
