<svg width="35" height="35" viewBox="0 0 35 35" fill="none" xmlns="http://www.w3.org/2000/svg">
<rect x="0.5" y="0.5" width="34" height="34" rx="17" fill="#333333" fill-opacity="0.7"/>
<rect x="0.5" y="0.5" width="34" height="34" rx="17" stroke="#EEEEEE"/>
<path d="M23.5 15.5003L19.5 11.5003M8 27.0003L11.3844 26.6243C11.7979 26.5783 12.0046 26.5553 12.1978 26.4928C12.3693 26.4373 12.5324 26.3589 12.6829 26.2597C12.8525 26.1479 12.9995 26.0008 13.2937 25.7066L26.5 12.5003C27.6046 11.3957 27.6046 9.60487 26.5 8.5003C25.3955 7.39573 23.6046 7.39573 22.5 8.5003L9.29373 21.7066C8.99955 22.0008 8.85246 22.1478 8.74064 22.3174C8.64143 22.4679 8.56301 22.631 8.50751 22.8025C8.44496 22.9957 8.42198 23.2024 8.37604 23.6159L8 27.0003Z" stroke="white" stroke-width="2" stroke-linecap="round" stroke-linejoin="round"/>
</svg>
